<svg xmlns="http://www.w3.org/2000/svg" width="128" height="128" fill="none"><path fill="#000" stroke="#fff" stroke-linejoin="bevel" stroke-width=".744" d="m60.198 42.478 47.124 27.031.005 33.034-47.129-27.036V42.478Z"/><path fill="#000" stroke="#fff" stroke-linejoin="bevel" stroke-width=".744" d="m60.325 42.578.1.554 46.671 26.775.053.031h13.293l-.1-.553L73.67 42.609l-.053-.03H60.325Z"/><path fill="#000" stroke="#fff" stroke-linejoin="bevel" stroke-width=".744" d="m20.193 65.685 40.462-23.212-.006 33.034-40.456 23.206V65.685Z"/><path fill="#000" stroke="#fff" stroke-linejoin="bevel" stroke-width=".744" d="M20.319 66.108h.047l.053-.031 40.004-22.951.1-.554H48.566l-.053.031L8.514 65.554l-.1.554h11.91-.005ZM60.428 75.114l47.124 27.031-40.457 23.207-47.129-27.03 40.462-23.208Z"/><path fill="#fff" stroke="#000" stroke-linejoin="bevel" stroke-width=".744" d="m20.193 65.423 47.13 27.031v33.034L20.197 98.452l-.005-33.029Z"/><path fill="#000" stroke="#000" stroke-linejoin="bevel" stroke-width=".744" d="m20.55 65.183-.225-.13V95.5l.226.13 36.329 20.966.152.089.058-.125 11.384-23.515.137-.288-.347-.198L20.55 65.183Z"/><path fill="#fff" stroke="#000" stroke-linejoin="bevel" stroke-width=".744" d="m66.865 92.455 40.462-23.212-.005 33.034-40.457 23.206V92.455Z"/><path fill="#000" stroke="#000" stroke-linejoin="bevel" stroke-width=".744" d="m67.359 92.48-.316.178.095.287 7.898 23.521.052.151.169-.094 31.749-18.249.226-.13V69.603l-.226.13L67.354 92.48h.005Z"/><path fill="#000" fill-rule="evenodd" d="m77.96 2.271 5.11 2.602c.321.162.505.501.463.857l-.352 3.155a.865.865 0 0 1-1.236.68l-.989-.476c.479 7.324-4.311 20.48-19.692 39.904-.01-.01-.026-.01-.042-.01a.102.102 0 0 0-.052.015.364.364 0 0 0-.053.042.188.188 0 0 0-.042.063c-29.993-3.48-19.702-29.335-8.576-35.495h-.005c.357-.193.72-.37 1.078-.528 2.513-1.091 4.285-1.06 5.526-.486.069.01.132.032.195.063l2.23 1.008a20.329 20.329 0 0 1 7.245-9.299c2.24-1.599 4.496-2.361 6.452-2.273a3.454 3.454 0 0 1 2.729.178h.01Z" clip-rule="evenodd"/><path fill="#fff" stroke="#000" stroke-width=".744" d="M45.063 85.823a240.383 240.383 0 0 0 6.635-11.073v-.001l.006-.009c.128-.23.304-.545.613-.8l.001-.001c.265-.218.575-.354.95-.436l.003-.001c.184-.039.37-.061.534-.081l.02-.002h.002c.053-.008.09-.011.119-.014.038-.004.065-.006.102-.014l.009-.001a5.82 5.82 0 0 1 .103-.017c.051-.008.09-.015.14-.026l.004-.001c1.44-.317 2.846-1.611 3.716-3.546.47-1.045.781-2.187 1.092-3.33l.019-.068.065-.241c.21-.77.43-1.576.711-2.358l-14.843 22.02Zm0 0h-.174v.05l.174-.05Zm8.414-29.613-.082-.363-17.812 16.046.095-.209.084-.186-.112-.17-.125-.193c-3.881-5.992-7.563-12.752-10.658-19.554-.26-.568-.515-1.136-.552-1.694-.036-.527.168-.94.422-1.105l.247-.163.214-.14-.054-.25-.063-.292-.002-.007a15.614 15.614 0 0 0-.484-1.562c-.17-.495-.336-.983-.436-1.41v-.002c-.1-.414-.185-.823-.196-1.195-.011-.372.053-.66.207-.87.098-.133.263-.274.56-.444a4.17 4.17 0 0 1 1.108-.416h.001c1.15-.256 2.398-.026 3.325.594l.241.162.21.14.21-.143.24-.166a4.56 4.56 0 0 1 1.573-.665 5.965 5.965 0 0 1 3.445.3c1.73.702 3.214 2.038 4.504 3.278l.752.72v.001l.048.046c1.968 1.882 3.385 3.239 5.226 5.515.586.719 1.582 1.783 2.47 2.73l.113.121.383.41c.241.257.459.489.639.688l.002.003c.477.517.992.773 1.5.87.5.094.97.03 1.35-.053h.002a9.87 9.87 0 0 0 .732-.194l.177-.05c.17-.046.331-.09.495-.128h.001Z"/><path stroke="#231F20" stroke-linejoin="bevel" stroke-width=".744" d="M45.287 63.303a8.728 8.728 0 0 1 3.528 5.25 8.672 8.672 0 0 1-1.01 6.233M24.021 48.983c1.078-.753 2.535-.8 3.802-.413 1.267.387 2.372 1.155 3.434 1.933a75.455 75.455 0 0 1 7.556 6.358M28.48 42.081a83.522 83.522 0 0 1 13.398 12.445"/><path fill="#fff" stroke="#000" stroke-width=".744" d="M90.698 85.275c-.82.332-1.627.521-2.431.464L79.423 56.95c.387.061.86.097 1.352-.028.502-.127 1-.415 1.444-.962l.003-.003c.168-.212.374-.46.603-.734l.35-.42.235-.286c.793-.96 1.657-2.007 2.167-2.717V51.8c1.692-2.377 3.023-3.82 4.858-5.806l.061-.066.705-.763c1.21-1.319 2.609-2.741 4.293-3.548a5.959 5.959 0 0 1 3.415-.511h.002a4.475 4.475 0 0 1 1.61.562l.002.001.242.15.219.133.203-.156.23-.177c.888-.677 2.115-.979 3.282-.795.4.062.78.181 1.131.349.31.15.482.28.586.404.165.2.247.487.259.86.013.371-.046.784-.119 1.199-.075.434-.212.933-.35 1.434l-.049.182c-.126.46-.26.947-.337 1.406l-.001.003-.047.292-.041.253.222.129.252.146.003.002c.262.148.49.55.49 1.081 0 .55-.218 1.125-.438 1.706l-.006.016c-2.67 6.98-5.922 13.958-9.425 20.174l-.115.203-.1.175.093.179.105.204.002.003c1.552 2.94 2.98 5.32 4.35 7.238-2.29 2.177-5.125 3.844-7.69 5.343l-.005.003-.117.071-.002.001c-.89.523-1.766 1.036-2.652 1.395Z"/><path stroke="#231F20" stroke-linejoin="bevel" stroke-width=".744" d="M84.827 74.854a8.69 8.69 0 0 1-1.394-6.16 8.69 8.69 0 0 1 3.197-5.46M92.683 56.406a76.278 76.278 0 0 1 7.145-6.807c1.01-.841 2.067-1.677 3.308-2.137 1.241-.46 2.697-.507 3.823.178M89.476 54.264a83.213 83.213 0 0 1 12.598-13.244"/><path fill="#fff" d="m80.962 9.089.178-.366-.636-.303.047.7.41-.026v-.005ZM61.27 48.993l-.242.329.32.23.248-.309-.321-.25h-.005Zm-.195.114-.047.403.278.031.132-.245-.363-.194v.006Zm-8.57-35.494.204.355-.405-.71.2.355Zm-.006 0-.205-.355.405.71-.2-.355Zm6.604-1.014-.173.371.047.021.047.01.08-.402Zm2.424 1.066-.168.371.394.178.158-.402-.384-.147ZM75.225 2.093l-.021.408h.079l.073-.021-.136-.387h.005Zm8.03 2.419L78.142 1.91l-.373.726 5.11 2.602.374-.726Zm.688 1.264a1.266 1.266 0 0 0-.684-1.264l-.373.726a.446.446 0 0 1 .242.45l.815.088Zm-.352 3.156.352-3.156-.815-.088-.352 3.155.815.089Zm-1.825.998c.789.381 1.725-.13 1.82-.998l-.816-.089a.454.454 0 0 1-.646.355l-.358.737V9.93Zm-.983-.476.988.476.358-.737-.989-.475-.357.736Zm-.232-.34c.237 3.569-.815 8.616-3.864 15.22-3.045 6.598-8.066 14.711-15.743 24.408l.646.507c7.704-9.728 12.767-17.904 15.843-24.576 3.076-6.666 4.18-11.854 3.933-15.61l-.82.052h.005Zm-19.04 39.55a.466.466 0 0 0-.31-.09l.048.816a.342.342 0 0 1-.221-.068l.483-.659Zm-.31-.09a.526.526 0 0 0-.236.074l.41.705s-.069.031-.132.037l-.047-.815h.005Zm-.231.074a.903.903 0 0 0-.153.12l.605.548s-.021.021-.047.037l-.41-.705h.005Zm-.153.12a.557.557 0 0 0-.1.146l.726.382s-.01.015-.016.02l-.604-.548h-.006Zm.305-.068c-7.44-.862-12.325-3.108-15.317-6.034-2.986-2.92-4.133-6.552-4.027-10.292.105-3.746 1.467-7.597 3.501-10.893 2.035-3.302 4.717-6.013 7.425-7.513l-.4-.71c-2.86 1.583-5.636 4.41-7.724 7.8-2.087 3.39-3.512 7.377-3.618 11.3-.11 3.929 1.1 7.795 4.275 10.898 3.166 3.093 8.245 5.386 15.796 6.264l.095-.81-.006-.01ZM52.3 13.258h-.005l.41.71h.005l-.41-.71Zm.395.71c.346-.193.699-.366 1.04-.512l-.325-.747c-.374.162-.742.345-1.115.549l.4.71Zm1.046-.512c2.45-1.066 4.09-.998 5.19-.49l.342-.743c-1.389-.637-3.287-.637-5.863.48l.326.748.005.005Zm5.284-.46a.318.318 0 0 1 .1.032l.342-.742a1.156 1.156 0 0 0-.29-.089l-.152.8Zm.105.037 2.23 1.008.342-.742-2.23-1.008-.341.742Zm2.782.779c1.094-2.832 3.176-6.317 7.099-9.117l-.479-.664a20.832 20.832 0 0 0-7.388 9.488l.768.293Zm7.099-9.117c2.187-1.562 4.359-2.283 6.194-2.194l.037-.815c-2.077-.1-4.422.715-6.715 2.345l.478.664h.006Zm9.133-2.785a3.872 3.872 0 0 0-3.055-.198l.274.768a3.05 3.05 0 0 1 2.408.156l.373-.726Z"/><path fill="#F360AF" stroke="#000" stroke-linejoin="bevel" stroke-width=".744" d="M58.766 15.374c-.363.156-.726.334-1.089.532h-.005c-5.679 3.146-11.147 11.311-11.363 19.137-.216 7.816 4.795 15.167 19.818 16.912.068.005.147-.037.21-.11.069 0 .148-.052.216-.136 15.512-19.591 20.36-32.934 19.792-40.369-.568-7.44-6.563-8.844-12.43-4.66a20.92 20.92 0 0 0-7.572 9.948c-1.1-1.772-3.276-3.125-7.572-1.26l-.005.006Z"/><path fill="#fff" stroke="#000" stroke-linejoin="bevel" stroke-width=".744" d="m20.54 65.455-.131-.073-.069.088L7.647 82.873l-.205.277.4.23 46.671 26.775.132.073.068-.089 12.699-17.402.205-.277-.4-.23L20.54 65.455Z"/><path fill="#fff" stroke="#000" stroke-linejoin="bevel" stroke-width=".744" d="m67.121 92.423-.4.23.2.277 12.32 17.021.064.089.131-.073 40.004-22.951.4-.23-.2-.277-12.32-17.02-.063-.095-.131.073-40.005 22.951v.005Z"/></svg>