<svg xmlns="http://www.w3.org/2000/svg" width="128" height="128" fill="none"><g fill="#000" stroke="#fff" stroke-width="1.086" clip-path="url(#a)"><path d="M113.769 18.188c1.877 6.826.045 14.056-4.413 19.215a20.39 20.39 0 0 1-6.775 5.159c-8.282 3.902-18.212 1.761-24.274-4.7a8.09 8.09 0 0 1-.397-.44 20.212 20.212 0 0 1-2.357-3.26 20.85 20.85 0 0 1-2.799-10.401C72.75 13.719 80.248 4.93 90.16 3.263c10.391-1.756 20.817 4.794 23.61 14.93v-.005Z"/><path d="M123.483 84.274c.188 10.076-12.65 14.998-20.777 16.488-9.93 1.82-21.293.893-30.163-4.207-4.399-2.53-8.742-6.738-8.742-12.133 0-15.674 1.426-35.862 14.096-46.989l.01-.01c.123.148.257.296.396.44l-.01.01c-2.482 3.906.282 7.846 3.794 9.864 4.8 2.762 10.99 3.353 16.468 2.318.188-.035.372-.074.555-.109.188-.04.376-.079.565-.123.287-.07.569-.138.847-.212 4.868-1.307 12.218-5.83 8.464-11.734l-.03-.024c.134-.143.268-.296.392-.444l.029.03c12.625 11.087 14.086 31.165 14.096 46.815v.025l.01-.005Z"/><path d="M98.554 50.054c.183-.035.372-.07.555-.11-.183.04-.366.075-.555.11Z"/><path d="M98.555 50.055c-5.478 1.035-11.664.444-16.468-2.318-3.507-2.018-6.275-5.954-3.794-9.865l.01-.01c6.062 6.462 15.998 8.602 24.274 4.7a20.494 20.494 0 0 0 6.384-4.714l.03.024c3.749 5.904-3.596 10.427-8.465 11.734-.282.074-.56.143-.846.212-.189.044-.377.089-.565.123-.183.04-.372.074-.555.109l-.005.005Z"/></g><path fill="#fff" stroke="#000" stroke-width=".922" d="M59.252 77.891c.172 9.286-11.609 13.822-19.068 15.194-9.113 1.678-19.54.823-27.68-3.876C8.468 86.877 4.482 83 4.482 78.028c0-14.444 1.309-33.047 12.936-43.3l.009-.01c.113.137.236.273.363.405l-.009.01c-2.277 3.599.26 7.23 3.482 9.09 4.404 2.544 10.086 3.09 15.113 2.135.172-.032.34-.068.509-.1a20.78 20.78 0 0 0 1.295-.309c4.468-1.204 11.213-5.372 7.768-10.812l-.028-.023c.123-.132.246-.273.36-.41l.027.028c11.585 10.217 12.926 28.72 12.935 43.141v.023l.01-.005Z"/><path fill="#fff" stroke="#000" stroke-width=".922" d="M36.377 46.359c.168-.032.34-.064.509-.1-.169.036-.337.068-.51.1ZM36.377 46.358c-5.027.955-10.704.41-15.113-2.136-3.218-1.859-5.759-5.486-3.481-9.09l.009-.01c5.563 5.955 14.68 7.927 22.276 4.332a18.82 18.82 0 0 0 5.858-4.345l.028.023c3.44 5.44-3.3 9.608-7.768 10.812-.26.069-.514.132-.777.196-.173.04-.346.082-.518.114-.169.036-.341.068-.51.1l-.004.004Z"/><ellipse cx="26.544" cy="35.927" fill="#000" rx="9.889" ry="10.226"/><path fill="#fff" stroke="#000" stroke-width=".922" d="M50.338 16.993c1.723 6.29.04 12.953-4.05 17.707-.113.137-.236.273-.359.41a18.717 18.717 0 0 1-5.859 4.345c-7.6 3.595-16.712 1.622-22.276-4.332a7.474 7.474 0 0 1-.363-.404 18.625 18.625 0 0 1-2.164-3.005A19.275 19.275 0 0 1 12.7 22.13c-.004-9.254 6.877-17.353 15.972-18.89 9.536-1.617 19.104 4.419 21.667 13.759v-.005Z"/><ellipse cx="6.365" cy="6.909" fill="#EDEDED" rx="6.365" ry="6.909" transform="matrix(.48078 -.87684 .88006 .47485 13.705 19.647)"/><path fill="#EDEDED" d="M12.49 49.884c4.609-6.463 8.277 20.06 9.743 32.853.33 2.867-2.638 4.9-5.225 3.62l-2.814-1.393c-4.254-2.106-7.03-6.377-6.851-11.12.284-7.546 1.369-18.662 5.146-23.96Z"/><path fill="#33F28B" stroke="#000" stroke-width="1.086" d="M91.375 104.156c.203 10.933-13.668 16.274-22.45 17.89-10.73 1.974-23.006.968-32.59-4.565-4.753-2.745-9.446-7.31-9.446-13.164 0-17.007 1.54-38.91 15.23-50.982l.01-.011c.135.16.28.321.429.476l-.01.01c-2.682 4.24.304 8.515 4.099 10.703 5.185 2.997 11.875 3.64 17.794 2.516.203-.038.4-.08.599-.118a25.118 25.118 0 0 0 1.525-.364c5.26-1.418 13.202-6.325 9.146-12.73l-.032-.028c.144-.155.289-.32.423-.481l.032.032c13.64 12.03 15.22 33.815 15.23 50.795v.027l.01-.006Z"/><path fill="#33F28B" stroke="#000" stroke-width="1.086" d="M64.442 67.029c.198-.038.401-.076.6-.119a20 20 0 0 1-.6.119ZM64.442 67.028c-5.919 1.124-12.603.482-17.794-2.515-3.789-2.189-6.78-6.46-4.1-10.703l.011-.01c6.55 7.01 17.286 9.332 26.228 5.1a22.158 22.158 0 0 0 6.898-5.117l.033.027c4.05 6.406-3.886 11.313-9.146 12.731-.305.08-.605.155-.915.23-.204.048-.407.097-.61.134-.198.043-.402.08-.6.118l-.005.005Z"/><ellipse cx="52.864" cy="54.747" fill="#000" rx="11.643" ry="12.04"/><path fill="#33F28B" stroke="#000" stroke-width="1.086" d="M80.882 32.454c2.028 7.406.048 15.251-4.769 20.849-.133.16-.278.32-.422.481a22.037 22.037 0 0 1-6.898 5.116c-8.948 4.233-19.678 1.91-26.229-5.1a8.855 8.855 0 0 1-.428-.476 21.94 21.94 0 0 1-2.547-3.537A22.696 22.696 0 0 1 36.565 38.5c-.005-10.895 8.097-20.431 18.806-22.24 11.227-1.905 22.492 5.201 25.51 16.198v-.005Z"/><ellipse cx="7.494" cy="8.134" fill="#fff" rx="7.494" ry="8.134" transform="matrix(.48078 -.87684 .88006 .47485 37.747 35.578)"/><path fill="#fff" d="M36.316 71.18c5.427-7.61 9.745 23.618 11.472 38.68.388 3.377-3.106 5.77-6.152 4.263l-3.313-1.64c-5.009-2.479-8.277-7.508-8.067-13.093.335-8.885 1.612-21.972 6.06-28.21Z"/><path fill="#C7C7C7" stroke="#000" stroke-width="1.086" d="M98.713 93.604c7.358-11.586 7.763-24.478.903-28.795-6.86-4.316-18.386 1.577-25.745 13.164-7.359 11.586-7.763 24.478-.903 28.795 6.86 4.316 18.386-1.577 25.745-13.164Z"/><path fill="#fff" stroke="#000" stroke-width="1.086" d="m104.211 67.458-4.66-2.691s2.207 3.226 2.261 3.178c.053-.048 2.399-.487 2.399-.487ZM73.103 106.848c.074.048 5.282 3.052 5.282 3.052l-1.314-2.077-3.968-.975Z"/><path fill="#fff" stroke="#000" stroke-width="1.086" d="M109.404 78.61c0 8.687-5.033 18.852-12.065 25.49-1.92 1.811-3.99 3.363-6.144 4.55a29.5 29.5 0 0 1-.665.35c-2.006 1.022-3.931 1.647-5.719 1.891-4.383.609-7.963-1.028-9.995-4.498-1.176-2.002-1.835-4.614-1.835-7.76 0-8.937 5.324-19.436 12.676-26.052 1.745-1.573 3.607-2.924 5.538-3.989 2.926-1.61 5.692-2.368 8.144-2.368 1.686 0 3.229.366 4.564 1.065 1.702.89 3.08 2.315 4.027 4.222.952 1.901 1.474 4.285 1.474 7.098Z"/><path fill="#000" stroke="#000" stroke-width="1.086" d="m100.776 79.223-6.65 3.888.208-7.559c.01-.456 1.649 0 1.516-.307-.16-.376-2.112-1.494-2.431-1.648-.522-.243-1.224-.164-2.011.292-1.66.974-3.053 3.3-3.107 5.19l-.207 7.56-6.65 3.888c-1.66.975-3.053 3.3-3.106 5.192-.027.99.319 1.663.894 1.944.239.116 1.963 1.44 2.271 1.414.367-.032-.676-1.446-.245-1.695l6.65-3.888-.208 7.559c-.021.874.245 1.504.703 1.833.26.185 2.074 1.541 2.436 1.526.383-.016-.681-1.42-.218-1.69.83-.488 1.596-1.314 2.16-2.252.563-.937.925-1.997.952-2.94l.207-7.559 6.65-3.888c.829-.487 1.596-1.314 2.159-2.251.564-.938.926-1.997.953-2.94.01-.461 1.686.047 1.553-.27-.112-.265-2.016-1.383-2.218-1.537-.532-.413-1.341-.397-2.256.138h-.005Z"/><path fill="#fff" stroke="#000" stroke-width="1.086" d="M105.689 82.207c-.027.943-.388 1.998-.947 2.94-.564.938-1.33 1.764-2.16 2.252l-3.862 2.256-2.782 1.627-.202 7.559c-.027.943-.388 2.002-.947 2.94-.495.826-1.144 1.563-1.862 2.06a4.509 4.509 0 0 1-.298.191c-1.213.71-2.24.503-2.68-.392-.17-.334-.256-.757-.24-1.271l.202-7.56-5.23 3.062-1.414.832c-1.665.97-2.968.223-2.92-1.669.053-1.89 1.446-4.216 3.106-5.19l2.98-1.738 3.664-2.146.202-7.559c.054-1.891 1.447-4.217 3.107-5.191 1.32-.768 2.415-.461 2.787.64.102.287.15.631.139 1.023l-.208 7.56 1.34-.785 3.006-1.758 2.298-1.346c1.666-.97 2.974-.222 2.921 1.669v-.006Z"/><defs><clipPath id="a"><path fill="#fff" d="M63.8 2.977h59.683v98.643H63.8z"/></clipPath></defs></svg>