<svg xmlns="http://www.w3.org/2000/svg" width="128" height="128" fill="none"><g clip-path="url(#a)"><mask id="b" width="128" height="128" x="0" y="0" maskUnits="userSpaceOnUse" style="mask-type:luminance"><path fill="#fff" d="M0 0h128v128H0V0Z"/></mask><g mask="url(#b)"><path fill="#fff" stroke="#000" stroke-linejoin="bevel" stroke-width=".744" d="M125.51 66.814c0 3.77-2.27 7.23-6.032 9.762-3.758 2.53-8.972 4.108-14.75 4.108-5.778 0-10.992-1.577-14.75-4.108-3.762-2.532-6.032-5.99-6.032-9.762 0-3.772 2.27-7.23 6.032-9.763 3.758-2.53 8.972-4.108 14.75-4.108 5.778 0 10.992 1.577 14.75 4.108 3.762 2.532 6.032 5.99 6.032 9.763Z"/><path fill="#000" d="M104.728 81.056c3.558 0 7.058-.604 10.177-1.756 3.119-1.152 5.756-2.816 7.667-4.836 1.911-2.02 3.034-4.333 3.265-6.723.232-2.39-.436-4.782-1.941-6.952l-19.168 6.025v14.242Z"/><path fill="#fff" stroke="#000" stroke-linejoin="bevel" stroke-width=".744" d="M126.117 62.269c0 3.326-2.324 6.407-6.232 8.678-3.899 2.264-9.309 3.677-15.306 3.677-5.996 0-11.407-1.413-15.305-3.677-3.909-2.27-6.233-5.352-6.233-8.678 0-3.327 2.325-6.408 6.233-8.678 3.898-2.265 9.309-3.678 15.305-3.678 5.997 0 11.407 1.413 15.306 3.678 3.908 2.27 6.232 5.35 6.232 8.678Z"/><path fill="#000" d="M104.427 71.362c10.682 0 19.341-4.817 19.341-10.758 0-5.942-8.659-10.758-19.341-10.758s-19.341 4.816-19.341 10.758c0 5.941 8.66 10.758 19.341 10.758Z"/><path fill="#000" stroke="#fff" stroke-linejoin="bevel" stroke-width=".744" d="M123.396 62.42c0 2.506-2.004 4.87-5.462 6.632-3.437 1.75-8.212 2.844-13.507 2.844s-10.07-1.093-13.507-2.844c-3.458-1.76-5.462-4.126-5.462-6.633 0-2.506 2.004-4.871 5.462-6.632 3.437-1.75 8.212-2.844 13.507-2.844s10.07 1.093 13.507 2.844c3.458 1.76 5.462 4.126 5.462 6.633Z"/><path fill="#fff" stroke="#000" stroke-linejoin="bevel" stroke-width=".744" d="m103.942 8.633-1.929.66 19.637 57.649.34-.116a1.687 1.687 0 0 0 1.048-2.136L103.942 8.633Z"/><path fill="#0226A6" stroke="#fff" stroke-width=".744" d="m87.04 34.627 5.79-2.881-4.282-1.547-5.79 2.88 4.281 1.547h.001Zm13.612 34.37 5.791-2.88 1.226-4.458-5.791 2.88-1.226 4.459Zm-8.754-27.264c-.314 5.247 2.962 11.825 7.324 14.695 2.166 1.427 4.191 1.669 5.719.908l5.791-2.88c-1.528.76-3.555.518-5.719-.91-4.359-2.87-7.639-9.45-7.323-14.694.158-2.64 1.197-4.44 2.746-5.208l-5.79 2.88c-1.548.77-2.587 2.57-2.748 5.209ZM93.65 28.64l5.79-2.88-3.533-5.15-5.79 2.882 3.532 5.149.001-.001Zm19.011 40.108 5.791-2.881-2.066-5.894-5.791 2.88 2.066 5.895Z"/><path fill="#0226A6" stroke="#fff" stroke-width=".744" d="M95.493 28.744c.726.104 1.464.298 2.214.577l5.791-2.88a10.754 10.754 0 0 0-2.214-.578 10.69 10.69 0 0 0-1.845-.102l-5.791 2.88c.537-.013 1.18.007 1.845.103Zm16.199 32.512a8.623 8.623 0 0 1-1.095 1.597l5.791-2.88c.41-.469.775-1 1.095-1.597.348-.652.634-1.367.854-2.023l-5.791 2.881c-.217.656-.504 1.37-.852 2.022h-.002Zm-5.822-25.68a30.598 30.598 0 0 1 1.784 2.377l5.791-2.88a30.598 30.598 0 0 0-1.784-2.377 33.688 33.688 0 0 0-2.015-2.208l-5.791 2.88a32.889 32.889 0 0 1 2.015 2.208Zm6.574 13.194a27.87 27.87 0 0 1 .547 3.067l5.791-2.88a26.88 26.88 0 0 0-.547-3.067 39.639 39.639 0 0 0-.761-2.728l-5.791 2.88c.256.816.535 1.771.761 2.728Z"/><path fill="#0226A6" stroke="#fff" stroke-width=".744" d="m103.143 27.634 5.791-2.88-4.209-2.773-5.79 2.881 4.208 2.772Z"/><path fill="#0226A6" stroke="#fff" stroke-width=".744" d="m103.854 33.37 5.792-2.881-.713-5.735-5.791 2.88.712 5.736Zm13.278 22.345 5.791-2.88-4.142-3.88-5.791 2.88 4.142 3.88Z"/><path fill="#0226A6" stroke="#fff" stroke-width=".744" d="m116.828 60.78 5.791-2.88.304-5.066-5.791 2.88-.304 5.067Zm-5.383-23.242 5.791-2.88-3.792.415-5.791 2.88 3.792-.415Zm.238 8.504 5.791-2.88 2.525-2.964-5.791 2.88-2.525 2.964Z"/><path fill="#0339F8" stroke="#fff" stroke-width=".744" d="m97.708 29.32 1.225-4.46 4.21 2.772.712 5.738a32.873 32.873 0 0 1 2.015 2.207 30.598 30.598 0 0 1 1.784 2.377l3.792-.416 2.762 5.54-2.523 2.965c.256.815.534 1.77.76 2.728a27.82 27.82 0 0 1 .548 3.066l4.144 3.878-.305 5.066-4.282-1.547a13.355 13.355 0 0 1-.852 2.023 8.623 8.623 0 0 1-1.095 1.597l2.066 5.894-3.192 1.62-3.533-5.148a11.17 11.17 0 0 1-1.845-.102 10.763 10.763 0 0 1-2.215-.578L100.659 69l-4.21-2.772-.712-5.735a31.035 31.035 0 0 1-3.798-4.585l-3.792.416-2.762-5.541 2.525-2.963c-.286-.9-.54-1.81-.76-2.73a27.265 27.265 0 0 1-.548-3.064l-4.142-3.88.304-5.065 4.283 1.545c.218-.656.504-1.37.854-2.02a8.566 8.566 0 0 1 1.095-1.597l-2.066-5.895 3.192-1.62 3.533 5.148c.537-.013 1.18.007 1.845.103.726.104 1.465.298 2.214.577h-.006v-.001ZM91.9 41.734c-.316 5.247 2.961 11.825 7.322 14.695 4.36 2.87 8.151.946 8.467-4.301.315-5.245-2.962-11.826-7.323-14.696-4.36-2.87-8.15-.945-8.466 4.302Z"/><path fill="#0226A6" stroke="#fff" stroke-width=".744" d="m114.208 43.08 5.791-2.882-2.762-5.54-5.791 2.88 2.762 5.54v.002Z"/><path fill="#fff" stroke="#000" stroke-linejoin="bevel" stroke-width=".744" d="m101.566 8.027 1.971.522-15.513 58.899a2.044 2.044 0 0 1-1.452-2.495l14.994-56.926Z"/><path fill="#000" fill-rule="evenodd" d="M80.095 17.77c-1.658.574-3.357 1.504-5.047 2.555-.455.283-.918.562-1.39.834-5.806 3.362-5.803 1.836-5.799-.077v-.304c-.003-1.908-.007-3.43 5.8-6.793 2.848-1.65 5.44-2.782 7.368-3.3 1.258-.337 2.492-.54 3.77-.98L90.895 7.6c.192-.067.393-.211.587-.287l12.59-4.927c.814-.32.814 1.035 0 1.66l-12.59 9.65a.943.943 0 0 1-.253.144c-.136.048-.3.19-.436.237l-10.699 3.695.001-.001Z" clip-rule="evenodd"/><mask id="c" width="38" height="22" x="67" y="2" maskUnits="userSpaceOnUse" style="mask-type:luminance"><path fill="#fff" fill-rule="evenodd" d="M80.095 17.77c-1.658.574-3.357 1.504-5.047 2.555-.455.283-.918.562-1.39.834-5.806 3.362-5.803 1.836-5.799-.077v-.304c-.003-1.908-.007-3.43 5.8-6.793 2.848-1.65 5.44-2.782 7.368-3.3 1.258-.337 2.492-.54 3.77-.98L90.895 7.6c.192-.067.393-.211.587-.287l12.59-4.927c.814-.32.814 1.035 0 1.66l-12.59 9.65a.943.943 0 0 1-.253.144c-.136.048-.3.19-.436.237l-10.699 3.695.001-.001Z" clip-rule="evenodd"/></mask><g mask="url(#c)"><path fill="#000" d="m67.86 20.93.644-.372v-.002l-.644.374Zm23.37-7.091-.121.8.12-.8Zm-17.572 8.064c.48-.277.95-.56 1.414-.848l-.047-1.46a50.34 50.34 0 0 1-1.366.82l-.001 1.488Zm-6.443-.45c-.002.9-.038 2.184.982 2.466.473.13 1.124.032 1.99-.285.869-.32 2-.88 3.472-1.73v-1.49c-1.432.83-2.478 1.34-3.24 1.62-.768.283-1.204.314-1.456.245-.428-.12-.462-.555-.46-1.568l-1.288.742Zm0-.151v.152l1.288-.743v-.153l-1.287.744h-.001Zm0-.15v.152l1.289-.748v-.152l-1.29.748Zm6.444-7.91c-1.472.85-2.603 1.602-3.472 2.29-.865.684-1.517 1.34-1.99 2.019-1.02 1.463-.983 2.704-.981 3.6l1.288-.747c-.003-1.01.03-1.486.46-2.101.25-.36.687-.835 1.455-1.442.762-.603 1.808-1.302 3.24-2.132v-1.487Zm7.535-3.372c-1.996.536-4.645 1.699-7.535 3.372v1.487c2.807-1.626 5.339-2.73 7.2-3.228l.335-1.631Zm3.474.638 6.1-2.106.255-1.607-6.1 2.107-.255 1.606Zm19.508-8.918-12.59 4.928-.207 1.588L103.97 3.18l.206-1.59Zm0 3.129c1.536-1.177 1.536-3.73 0-3.13l-.206 1.59a.095.095 0 0 1 .043-.01c.005 0 .008.002.01.005.006.005.017.023.017.06a.195.195 0 0 1-.017.079.25.25 0 0 1-.053.056l.206 1.35Zm-12.59 9.652 12.59-9.652-.206-1.35-12.591 9.652.207 1.35Zm-.477.268c.155-.055.316-.145.477-.268l-.207-1.35a.103.103 0 0 1-.03.017l-.24 1.6Zm-.188-1.366-10.698 3.695-.256 1.607 10.699-3.695.255-1.607Zm.429-.235c-.087.03-.164.072-.222.105a3.723 3.723 0 0 0-.147.09l-.073.045c-.014.007-.006.002.013-.005l-.255 1.607c.087-.03.166-.071.226-.105.059-.033.115-.07.15-.09.04-.027.06-.04.077-.048.014-.01.008-.004-.01.002l.24-1.601Zm-.582-4.636c.157-.054.308-.137.403-.19.112-.06.163-.088.208-.106l.207-1.588c-.148.058-.295.14-.38.187-.059.034-.12.064-.183.09l-.255 1.607Zm-9.91 3.098c1.182-.317 2.516-.545 3.81-.993l.256-1.606c-1.26.435-2.394.61-3.73.969l-.335 1.63Zm-5.786 9.555c1.666-1.035 3.308-1.933 4.895-2.481l.256-1.607c-1.728.597-3.484 1.562-5.198 2.628l.047 1.46Z"/></g><path fill="#fff" stroke="#000" stroke-linejoin="bevel" stroke-width=".744" d="M81.447 11.145c-.297-.2-.185-.507.225-.62l9.097-2.487A.88.88 0 0 0 90.88 8l12.785-5.39c.267-.113.634-.1.874.032l3.976 2.175c.311.17.28.46-.064.608L94.963 11.18a.891.891 0 0 1-.117.04l-8.988 2.433c-.278.075-.608.034-.809-.1l-3.602-2.41v.002Z"/><path fill="#D9D9D9" fill-rule="evenodd" d="M84.935 20.328c-1.658.573-3.357 1.503-5.047 2.554-.459.285-.922.563-1.39.834-5.806 3.362-5.803 1.836-5.8-.076v-.305c-.003-1.908-.006-3.43 5.8-6.793 2.849-1.649 5.439-2.782 7.368-3.3 1.258-.337 2.492-.539 3.77-.98l6.099-2.106c.192-.067.393-.211.587-.287l12.59-4.927c.815-.319.815 1.035 0 1.66l-12.59 9.651a.948.948 0 0 1-.253.143c-.136.049-.3.19-.436.238l-10.698 3.694Z" clip-rule="evenodd"/><mask id="d" width="38" height="22" x="72" y="4" maskUnits="userSpaceOnUse" style="mask-type:luminance"><path fill="#fff" fill-rule="evenodd" d="M84.935 20.328c-1.658.573-3.357 1.503-5.047 2.554-.459.285-.922.563-1.39.834-5.806 3.362-5.803 1.836-5.8-.076v-.305c-.003-1.908-.006-3.43 5.8-6.793 2.849-1.649 5.439-2.782 7.368-3.3 1.258-.337 2.492-.539 3.77-.98l6.099-2.106c.192-.067.393-.211.587-.287l12.59-4.927c.815-.319.815 1.035 0 1.66l-12.59 9.651a.948.948 0 0 1-.253.143c-.136.049-.3.19-.436.238l-10.698 3.694Z" clip-rule="evenodd"/></mask><g mask="url(#d)"><path fill="#000" d="m72.699 23.487.644-.372v-.002l-.644.374Zm36.213-16.885.103.674-.103-.675v.001Zm-13.28 10.031.128-.803-.127.804h-.001Zm-17.134 7.828c.479-.278.95-.56 1.414-.849l-.048-1.46a50.34 50.34 0 0 1-1.366.82V24.461Zm-6.443-.45c-.002.9-.04 2.183.98 2.465.474.13 1.126.033 1.99-.285.87-.32 2-.878 3.473-1.73v-1.489c-1.432.83-2.477 1.34-3.24 1.62-.768.282-1.204.314-1.455.244-.43-.119-.462-.555-.46-1.568l-1.288.743Zm0-.152v.152l1.288-.743v-.153l-1.288.744Zm0-.15v.152l1.288-.748v-.152l-1.288.748Zm6.443-7.91c-1.471.851-2.603 1.602-3.472 2.29-.865.684-1.517 1.34-1.99 2.02-1.02 1.462-.983 2.703-.981 3.6l1.288-.749c-.002-1.01.03-1.485.46-2.1.25-.36.687-.834 1.455-1.44.763-.605 1.809-1.304 3.24-2.133V15.8Zm7.535-3.372c-1.995.536-4.644 1.7-7.535 3.372v1.488c2.807-1.625 5.34-2.73 7.2-3.229l.335-1.63Zm3.474.64 6.1-2.108.255-1.607-6.1 2.107-.255 1.607Zm19.508-8.919-12.59 4.927-.206 1.59 12.59-4.929.206-1.588Zm0 3.128c1.536-1.177 1.536-3.73 0-3.128l-.206 1.588a.096.096 0 0 1 .044-.01c.004.001.007.002.009.005.006.005.017.023.017.06a.195.195 0 0 1-.017.08.296.296 0 0 1-.009.014.268.268 0 0 1-.044.041l.206 1.35Zm-12.59 9.652 12.59-9.652-.206-1.35-12.591 9.653.207 1.35Zm-.477.27c.155-.057.317-.147.477-.27l-.207-1.35a.111.111 0 0 1-.03.017l-.24 1.602Zm-.188-1.368-10.698 3.695-.255 1.607 10.698-3.695.255-1.607Zm.429-.235c-.087.03-.163.072-.222.105a2.996 2.996 0 0 0-.146.09 1.8 1.8 0 0 1-.074.045c-.013.007-.006.002.013-.005l-.255 1.607c.087-.03.166-.07.226-.105.059-.033.115-.069.15-.09a1 1 0 0 1 .077-.048c.014-.009.008-.004-.01.003l.24-1.602Zm-.582-4.636c.157-.054.308-.137.403-.189.112-.06.163-.089.209-.106l.206-1.589c-.148.06-.294.14-.38.187-.059.035-.12.065-.183.09l-.255 1.607Zm-9.908 3.1c1.18-.318 2.514-.546 3.808-.993l.255-1.607c-1.26.435-2.393.61-3.73.968l-.334 1.631v.001Zm-5.787 9.553c1.665-1.035 3.308-1.932 4.895-2.48l.255-1.607c-1.728.597-3.483 1.561-5.198 2.627l.048 1.46Z"/></g><path fill="#fff" stroke="#000" stroke-linejoin="bevel" stroke-width=".744" d="M62.116 31.96h6.044v48.487h-6.044V31.96Z"/><path fill="#fff" stroke="#000" stroke-linejoin="bevel" stroke-width=".744" d="m65.273 73.868 37.477 21.695-37.42 21.662L27.853 95.53l37.42-21.662Z"/><path fill="#000" stroke="#000" stroke-linejoin="bevel" stroke-width=".744" d="m68.252 75.593 23.406 13.55-12.76 7.386-23.406-13.55 12.76-7.386Z"/><path fill="#fff" stroke="#000" stroke-linejoin="bevel" stroke-width=".744" d="m64.84 14.375 11.174 6.469-10.873 6.294-11.174-6.469 10.872-6.294Z"/><path fill="#000" d="m65.06 10.176 1.187.688-1.155.669-1.188-.688 1.156-.67Z"/><path fill="#fff" stroke="#000" stroke-linejoin="bevel" stroke-width=".744" d="m65.14 117.212 37.397-21.653v6.811l-37.398 21.653v-6.811ZM65.14 27.206l10.982-6.359v11.537l-10.983 6.36V27.205Z"/><path fill="#000" stroke="#000" stroke-linejoin="bevel" stroke-width=".744" d="m65.14 22.799 5.308-3.074v1.946l-5.309 3.074v-1.946Z"/><path fill="#fff" stroke="#000" stroke-linejoin="bevel" stroke-width=".744" d="M65.14 11.57v11.3l5.44-3.098-4.284-8.72-1.157.516v.002ZM65.063 117.212 27.665 95.559v6.811l37.398 21.653v-6.811Z"/><path fill="#D9D9D9" stroke="#000" stroke-linejoin="bevel" stroke-width=".744" d="M65.063 27.206 54.08 20.847v11.537l10.983 6.36V27.205Z"/><path fill="#fff" stroke="#000" stroke-linejoin="bevel" stroke-width=".744" d="m65.063 22.799-5.31-3.074v1.946l5.31 3.074v-1.946Z"/><path fill="#D9D9D9" stroke="#000" stroke-linejoin="bevel" stroke-width=".744" d="M65.063 11.57v11.3l-5.44-3.098 4.283-8.72 1.157.516v.002Z"/><path fill="#D9D9D9" fill-rule="evenodd" d="m62.126 68.06-.085-.038-11.18 23.031 14.202 8.182V69.536c-1.634-.017-2.948-.621-2.948-1.363 0-.038.004-.075.01-.112l.001-.001Z" clip-rule="evenodd"/><path fill="#000" d="m62.04 68.022.154-.34-.487.178.334.162Zm.086.038.366.067-.213-.406-.153.339ZM50.86 91.053l-.335-.162.15.485.185-.323Zm14.203 8.182-.185.323.558-.323h-.373Zm0-29.7h.373l-.37-.371-.003.372Zm-3.175-1.173.085.038.306-.68-.085-.037-.306.679ZM51.195 91.216l11.18-23.031-.668-.325-11.181 23.03.669.326Zm14.054 7.697L51.046 90.73l-.371.645 14.203 8.182.37-.645Zm-.558-29.377v29.7l.745-.001v-29.7h-.745Zm.376-.372c-.777-.008-1.46-.157-1.935-.376-.507-.234-.644-.478-.644-.615h-.745c0 .605.52 1.034 1.078 1.29.59.274 1.38.436 2.238.445l.008-.744Zm-2.58-.991c.001-.016.002-.031.005-.046l-.732-.133a.978.978 0 0 0-.017.179h.745Z"/><path fill="#fff" stroke="#000" stroke-linejoin="bevel" stroke-width=".744" d="M46.33 108.633c0 3.772-2.27 7.231-6.03 9.763-3.76 2.531-8.974 4.108-14.75 4.108-5.779 0-10.993-1.577-14.752-4.108-3.76-2.532-6.032-5.991-6.032-9.763 0-3.771 2.27-7.23 6.032-9.762 3.76-2.53 8.973-4.108 14.75-4.108 5.778 0 10.992 1.577 14.75 4.108 3.762 2.532 6.032 5.991 6.032 9.762Z"/><path fill="#000" d="M25.548 122.876c3.558 0 7.058-.604 10.177-1.756 3.12-1.153 5.756-2.816 7.667-4.836 1.91-2.021 3.034-4.333 3.266-6.723.231-2.391-.436-4.782-1.94-6.952l-19.17 6.024v14.243Z"/><path fill="#fff" stroke="#000" stroke-linejoin="bevel" stroke-width=".744" d="M46.936 104.088c0 3.327-2.324 6.408-6.232 8.678-3.899 2.265-9.31 3.678-15.306 3.678-5.996 0-11.407-1.413-15.306-3.678-3.908-2.27-6.232-5.351-6.232-8.678 0-3.326 2.324-6.407 6.232-8.678 3.9-2.264 9.31-3.677 15.306-3.677 5.996 0 11.407 1.413 15.306 3.677 3.908 2.27 6.232 5.352 6.232 8.678Z"/><path fill="#000" d="M25.246 113.179c10.682 0 19.341-4.816 19.341-10.758 0-5.941-8.66-10.758-19.341-10.758-10.682 0-19.341 4.817-19.341 10.758 0 5.942 8.66 10.758 19.341 10.758Z"/><path fill="#D9D9D9" stroke="#000" stroke-linejoin="bevel" stroke-width=".744" d="M44.215 104.239c0 2.507-2.003 4.872-5.46 6.633-3.439 1.75-8.214 2.844-13.509 2.844-5.294 0-10.07-1.094-13.507-2.844-3.458-1.761-5.462-4.126-5.462-6.633 0-2.506 2.004-4.871 5.462-6.632 3.438-1.75 8.213-2.844 13.507-2.844 5.295 0 10.07 1.093 13.508 2.844 3.458 1.76 5.461 4.126 5.461 6.632Z"/><path fill="#fff" stroke="#000" stroke-linejoin="bevel" stroke-width=".744" d="m24.402 50.452-1.93.66 19.638 57.649.34-.116a1.687 1.687 0 0 0 1.047-2.136L24.402 50.452Z"/><path fill="#000" d="m25.597 112.303-6.874-4.004 2.49-22.17 6.871 4.006-2.487 22.168Zm3.07-29.71-6.873-4.005 8.677-5.021 6.871 4.004-8.675 5.022Zm-7-12.505-6.874-4.007 10.463-6.058 6.874 4.005-10.464 6.06Zm-3.012 25.506-6.87-4.005 3.007-25.508 6.874 4.007-3.01 25.506Z"/><path stroke="#fff" stroke-width=".744" d="m21.666 70.088-6.873-4.007 10.463-6.058 6.874 4.005-10.464 6.06Zm0 0-6.874-4.007-3.008 25.508 6.871 4.005 3.011-25.506Zm3.931 42.215-6.874-4.004 2.49-22.17 6.871 4.006-2.487 22.168Zm3.07-29.71-6.873-4.005 8.677-5.021 6.871 4.004-8.675 5.022Z"/><path fill="#FFB030" stroke="#000" stroke-width=".744" d="m37.341 77.572-11.745 34.732 2.488-22.168-9.429 5.458 3.011-25.506 10.464-6.06-3.464 18.565 8.675-5.021Z"/><path fill="#fff" stroke="#000" stroke-linejoin="bevel" stroke-width=".744" d="m22.025 49.846 1.972.522-15.514 58.899a2.046 2.046 0 0 1-1.452-2.494l14.994-56.927Z"/><path fill="#000" fill-rule="evenodd" d="M47.874 28.964c-1.563.994-3.133 1.852-4.67 2.41l-12.59 4.57c-.163.06-.324.08-.484.1-.264.034-.526.067-.796.272L13.45 48.396c-.82.624-.82 1.987 0 1.66l15.885-6.313c.152-.06.308-.165.465-.27.165-.11.33-.22.49-.28l7.094-2.574c.871-.316 1.724-.524 2.576-.73.325-.08.65-.16.975-.244 2.35-.613 5.647-2.057 9.298-4.17 3.073-1.78 4.788-3.102 5.743-4.206l2.197 1.166a.56.56 0 0 0 .741-.202l2.282-3.733a.56.56 0 0 0-.22-.79l-3.988-2.056c-.442-.956-1.91-.927-6.755 1.88-.805.466-1.594.944-2.359 1.43Z" clip-rule="evenodd"/><path fill="#000" d="m55.976 31.269.175-.328-.456.085.281.243Zm1.012-5.615-.337.156.167.175.17-.331Zm-13.657 6.07c1.574-.572 3.17-1.445 4.744-2.446l-.4-.628c-1.552.987-3.097 1.829-4.599 2.374l.255.7Zm-12.589 4.57 12.59-4.57-.256-.7-12.588 4.57.254.7Zm-.565.12c.155-.02.357-.045.565-.12l-.254-.7c-.118.043-.239.06-.404.08l.094.739Zm-.616.198c.182-.138.352-.165.617-.2l-.094-.737c-.263.034-.617.074-.974.345l.45.592h.001Zm-15.887 12.08 15.886-12.08-.45-.592L13.223 48.1l.451.593Zm-.362 1.02c-.12.048-.11.002-.076.034.01.008-.03-.026-.03-.163 0-.266.154-.651.468-.89l-.45-.592c-.506.384-.762.992-.762 1.482 0 .24.064.525.278.717.24.216.558.218.847.103l-.275-.691Zm15.885-6.315-15.885 6.315.275.69 15.886-6.313-.276-.692Zm.395-.233a2.33 2.33 0 0 1-.395.233l.276.692c.196-.078.387-.208.534-.306l-.415-.62Zm.57-.32c-.21.077-.416.217-.57.32l.415.619c.176-.118.301-.2.41-.24l-.255-.7Zm7.095-2.575-7.095 2.575.256.7 7.092-2.575-.253-.7Zm2.614-.742c-.85.206-1.72.418-2.614.742l.253.7c.85-.31 1.683-.511 2.538-.72l-.177-.722Zm.971-.242c-.323.084-.646.163-.97.242l.175.723c.324-.08.652-.16.981-.245l-.188-.72h.002Zm9.203-4.132c-3.635 2.105-6.9 3.53-9.205 4.132l.188.72c2.396-.625 5.726-2.086 9.391-4.208l-.374-.644Zm5.65-4.127c-.914 1.055-2.585 2.352-5.65 4.127l.374.644c3.083-1.785 4.84-3.132 5.838-4.284l-.563-.488h.001Zm.106.572 2.197 1.166.35-.657-2.197-1.166-.35.657Zm2.197 1.166a.932.932 0 0 0 1.233-.337l-.634-.388a.19.19 0 0 1-.25.068l-.349.657Zm1.233-.337 2.281-3.733-.634-.388-2.28 3.733.633.388Zm2.281-3.733a.933.933 0 0 0-.368-1.315l-.339.66a.19.19 0 0 1 .073.267l.634.388Zm-.368-1.315-3.986-2.056-.34.662 3.985 2.055.341-.661Zm-10.726.476c2.42-1.401 3.958-2.085 4.927-2.31.484-.112.784-.1.97-.041.162.052.263.15.336.306l.674-.313a1.263 1.263 0 0 0-.785-.702c-.367-.117-.82-.101-1.363.025-1.087.253-2.705.987-5.13 2.39l.371.645Zm-2.343 1.423c.76-.483 1.543-.96 2.343-1.423l-.372-.644c-.81.47-1.603.95-2.37 1.44l.4.627Z"/><path fill="#fff" stroke="#000" stroke-linejoin="bevel" stroke-width=".744" d="m17.554 52.415-4.61-2.311a.561.561 0 0 1-.09-.946L29.068 36.75a.56.56 0 0 1 .628-.037l3.802 2.264a.559.559 0 0 1 .056.925l-7.962 6.163-7.424 6.276a.56.56 0 0 1-.613.073Z"/><path fill="#D9D9D9" fill-rule="evenodd" d="M48.141 34.056c1.538-.56 3.109-1.417 4.672-2.41.775-.493 1.56-.97 2.356-1.43 6.954-4.027 6.95-2.337 6.945-.22v.338c.005 2.112.009 3.797-6.945 7.823-3.65 2.114-6.947 3.558-9.298 4.17-1.18.309-2.35.538-3.554.975l-7.088 2.573c-.312.113-.644.426-.957.55L18.386 52.74c-.82.326-.82-1.037 0-1.66l15.886-12.081c.432-.33.846-.216 1.277-.372l12.592-4.571Z" clip-rule="evenodd"/><mask id="e" width="46" height="26" x="17" y="27" maskUnits="userSpaceOnUse" style="mask-type:luminance"><path fill="#fff" fill-rule="evenodd" d="M48.141 34.056c1.538-.56 3.109-1.417 4.672-2.41.775-.493 1.56-.97 2.356-1.43 6.954-4.027 6.95-2.337 6.945-.22v.338c.005 2.112.009 3.797-6.945 7.823-3.65 2.114-6.947 3.558-9.298 4.17-1.18.309-2.35.538-3.554.975l-7.088 2.573c-.312.113-.644.426-.957.55L18.386 52.74c-.82.326-.82-1.037 0-1.66l15.886-12.081c.432-.33.846-.216 1.277-.372l12.592-4.571Z" clip-rule="evenodd"/></mask><g mask="url(#e)"><path fill="#000" d="m62.114 30.165-.644.372v.003l.644-.375Zm-6.945-.694c-.815.472-1.613.957-2.388 1.45l.063 1.45c.754-.479 1.53-.95 2.325-1.41v-1.49Zm7.59.155c.002-1.013.037-2.398-1.144-2.649-.543-.114-1.298.02-2.32.412-1.026.394-2.37 1.065-4.126 2.082v1.49c1.72-.997 2.984-1.624 3.912-1.98.934-.358 1.48-.423 1.806-.354.555.117.586.636.583 1.74l1.289-.74Zm-.001.168v-.17l-1.288.743v.17l1.288-.743Zm0 .166v-.169l-1.288.748v.17l1.288-.749Zm-7.59 8.941c1.757-1.017 3.1-1.9 4.128-2.696 1.02-.79 1.776-1.53 2.319-2.274 1.18-1.617 1.145-2.96 1.143-3.97l-1.288.747c.003 1.102-.028 1.657-.583 2.416-.325.445-.873 1.014-1.806 1.738-.928.718-2.192 1.555-3.912 2.551l-.001 1.488ZM45.7 43.144c2.42-.63 5.778-2.106 9.468-4.243v-1.488c-3.61 2.09-6.846 3.504-9.126 4.098l-.342 1.633Zm-3.265-.642-7.087 2.573-.237 1.6 7.088-2.573.236-1.6Zm-24.15 11.031 15.887-6.314.2-1.586-15.886 6.314-.2 1.586Zm0-3.13c-1.544 1.174-1.544 3.744 0 3.13l.2-1.586a.098.098 0 0 1-.043.01.016.016 0 0 1-.01-.004c-.006-.005-.016-.023-.016-.06 0-.038.01-.067.016-.08a.08.08 0 0 1 .01-.015.251.251 0 0 1 .044-.04l-.2-1.355Zm15.887-12.08-15.886 12.08.2 1.354 15.886-12.08-.2-1.355Zm1.259 1.104 12.592-4.572.237-1.6-12.593 4.572-.236 1.6Zm-1.06.25c.043-.033.12-.072.317-.102.147-.022.457-.044.743-.148l.236-1.6c-.144.052-.257.052-.533.094-.35.046-.682.185-.962.401l.2 1.355h-.001Zm.977 5.398c-.253.092-.498.258-.648.36-.18.12-.261.171-.33.2l-.198 1.584c.246-.098.487-.265.629-.36.173-.116.25-.163.31-.184l.237-1.6Zm10.694-3.564c-1.138.297-2.367.541-3.607.991l-.236 1.6c1.169-.424 2.277-.638 3.5-.958l.343-1.633Zm6.74-10.59c-1.532.973-3.05 1.8-4.522 2.334l-.237 1.6c1.603-.58 3.227-1.47 4.82-2.484l-.062-1.45Z"/></g><path fill="#000" stroke="#fff" stroke-linejoin="bevel" stroke-width=".744" d="m64.816 99.257 14.115-8.172v6.405l-14.115 8.172v-6.405Z"/><path fill="#fff" stroke="#000" stroke-linejoin="bevel" stroke-width=".744" d="M65.063 99.444 50.69 91.122v5.267l14.373 8.322v-5.267Z"/><path fill="#fff" fill-rule="evenodd" d="M65.14 69.537c1.67 0 3.022-.61 3.022-1.364a.625.625 0 0 0-.016-.143l.016-.008 11.182 23.031-14.204 8.182V69.537Z" clip-rule="evenodd"/><path fill="#000" d="M65.14 69.537v-.372l-.372.372h.372Zm3.006-1.507-.153-.34-.21.424.363-.084Zm.016-.008.335-.162-.488-.177.153.339Zm11.182 23.03.185.324.15-.485-.335.162ZM65.14 99.236h-.372l.558.323-.186-.323Zm2.65-31.062c0 .14-.143.389-.666.625-.489.22-1.19.367-1.984.367v.744c.875 0 1.685-.16 2.29-.433.57-.257 1.104-.69 1.104-1.303h-.744Zm-.007-.06c.005.02.007.04.007.06h.744c0-.077-.009-.153-.026-.227l-.725.168Zm.226-.43-.016.007.306.679.016-.007-.306-.68ZM79.68 90.89 68.497 67.86l-.67.325 11.181 23.03.671-.324Zm-14.353 8.667 14.203-8.182-.37-.645-14.205 8.182.372.645Zm-.558-30.021v29.698h.744V69.537h-.744Z"/></g></g><defs><clipPath id="a"><path fill="#fff" d="M0 0h128v128H0z"/></clipPath></defs></svg>