<svg xmlns="http://www.w3.org/2000/svg" width="128" height="128" fill="none"><g clip-path="url(#a)"><mask id="b" width="128" height="128" x="0" y="0" maskUnits="userSpaceOnUse" style="mask-type:luminance"><path fill="#fff" d="M0 0h128v128H0V0Z"/></mask><g mask="url(#b)"><path fill="#000" stroke="#fff" stroke-width=".744" d="m14.2 48.9 52.1-30.2c.5-.3 1.2-.5 2-.5.7 0 1.4.2 2 .5l4.2 2.4c.5.3.7.7.7.9 0 .2-.2.6-.7.9L22.4 53.2c-.5.3-1.2.5-2 .5-.7 0-1.4-.2-2-.5l-4.2-2.4c-.5-.3-.7-.7-.7-.9 0-.3.2-.7.7-1Z"/><path fill="#000" stroke="#fff" stroke-width=".744" d="m20.8 76-1.7-17.6c-.1-1.1.2-2.5.9-3.7.7-1.2 1.6-2.3 2.6-2.9l50.9-29.5c.9-.5 1.6-.6 2.2-.3.5.2.9.8 1 1.8l1.8 18.8L20.8 76Zm-3.3 22.7 3.3-21.9 57.7-33.5 2.6 22.2c.1 1.1-.2 2.5-.9 3.7-.7 1.2-1.6 2.3-2.6 2.9L28 101.4c-.2.1-.5.2-.7.3-2.3.7-4.6.6-6.4.1-.9-.3-1.7-.6-2.2-1-.6-.4-1-.8-1.2-1.2-.1-.2-.1-.5 0-.9Z"/><path fill="#000" stroke="#fff" stroke-width=".744" d="m20.3 55.8 4 40.8c.4 4.2-2.3 6.2-5.8 4.2l-1.6-.9c-3.4-2-6-6.8-5.8-10.6L13.5 52c.1-2 1.6-2.7 3.4-1.7 1.8 1 3.2 3.4 3.4 5.5Z"/><path fill="#000" fill-rule="evenodd" d="M32.6 40.4v-2.5c0-6.1 4.3-13.5 9.6-16.6l1.6-.9c5.3-3.1 9.6-.6 9.6 5.5v2.5L50.6 30v-1c0-4.6-3.2-6.5-7.2-4.2s-7.2 7.9-7.2 12.6v1l-3.6 2Z" clip-rule="evenodd"/><path fill="#000" d="m32.6 40.4.2.3c-.1.1-.3.1-.4 0-.1-.1-.2-.2-.2-.3h.4Zm20.8-12h.4c0 .1-.1.3-.2.3l-.2-.3ZM50.6 30l.2.3c-.1.1-.3.1-.4 0-.1-.1-.2-.2-.2-.3h.4Zm-14.5 8.4h.4c0 .1-.1.3-.2.3l-.2-.3Zm-3.8 2v-2.5h.7v2.5h-.7Zm0-2.5c0-3.1 1.1-6.6 2.8-9.6 1.8-3 4.2-5.7 6.9-7.3l.4.6c-2.6 1.5-4.9 4.1-6.6 7-1.7 3-2.7 6.3-2.7 9.2h-.8v.1ZM42 21l1.6-.9.4.6-1.6.9-.4-.6Zm1.6-.9c2.7-1.6 5.2-1.8 7.1-.7 1.9 1.1 3 3.4 3 6.5H53c0-3-1-5-2.6-5.9-1.6-.9-3.8-.8-6.4.7l-.4-.6Zm10.1 5.8v2.5H53v-2.5h.7Zm-.2 2.8-2.7 1.6-.4-.6 2.7-1.6.4.6ZM51 29v1h-.8v-1h.8Zm-7.8-4.5c2.1-1.2 4-1.4 5.5-.5 1.5.8 2.3 2.6 2.3 5h-.8c0-2.2-.8-3.7-1.9-4.4-1.1-.6-2.8-.6-4.7.5l-.4-.6Zm-7.4 12.9c0-2.4.8-5 2.2-7.3 1.3-2.3 3.2-4.4 5.3-5.6l.4.6c-1.9 1.1-3.7 3.1-5 5.3-1.3 2.2-2.1 4.7-2.1 7h-.8Zm0 1v-1h.7v1h-.7Zm.5.3-3.5 2-.4-.6 3.5-2 .4.6Z"/><path fill="#fff" fill-rule="evenodd" d="M34.8 41.9v-2.7c0-6.1 4.3-13.5 9.6-16.6l1.6-.9c5.3-3.1 9.6-.6 9.6 5.5v2.7l-2.7 1.6v-1.2c0-4.6-3.2-6.5-7.2-4.2s-7.2 7.9-7.2 12.6v1.2l-3.7 2Z" clip-rule="evenodd"/><path fill="#000" d="m34.8 41.9.2.3c-.1.1-.3.1-.4 0-.1-.1-.2-.2-.2-.3h.4Zm20.7-12h.4c0 .1-.1.3-.2.3l-.2-.3Zm-2.8 1.6.2.3c-.1.1-.3.1-.4 0-.1-.1-.2-.2-.2-.3h.4Zm-14.4 8.4h.4c0 .1-.1.3-.2.3l-.2-.3Zm-3.9 2v-2.7h.7v2.7h-.7Zm0-2.7c0-3.1 1.1-6.6 2.8-9.6 1.8-3 4.2-5.7 6.9-7.3l.4.6c-2.6 1.5-4.9 4.1-6.6 7-1.7 3-2.7 6.3-2.7 9.2h-.8v.1Zm9.7-16.9 1.6-.9.4.6-1.6.9-.4-.6Zm1.6-.9c2.7-1.6 5.2-1.8 7.1-.7 1.9 1.1 3 3.4 3 6.5h-.7c0-3-1-5-2.6-5.9-1.6-.9-3.8-.8-6.4.7l-.4-.6Zm10.1 5.8v2.7h-.7v-2.7h.7Zm-.1 3L53 31.8l-.4-.6 2.7-1.6.4.6Zm-2.6 0v1.2h-.7v-1.2h.7Zm-7.8-4.5c2.1-1.2 4-1.4 5.5-.5 1.5.8 2.3 2.6 2.3 5h-.7c0-2.2-.8-3.7-1.9-4.4-1.2-.7-2.8-.6-4.7.5l-.5-.6Zm-7.4 12.9c0-2.4.8-5 2.2-7.3 1.3-2.3 3.2-4.4 5.3-5.6l.4.6c-1.9 1.1-3.7 3.1-5 5.3-1.3 2.2-2.1 4.7-2.1 7h-.8Zm0 1.3v-1.2h.7v1.2h-.7Zm.5.3-3.5 2-.4-.6 3.5-2 .4.6Z"/><path fill="#D9D9D9" stroke="#000" stroke-linejoin="round" stroke-width=".744" d="m52.7 29.6-2.1-1.2v1.8l2.1 1.3v-1.9ZM34.8 39.9l-2.2-1.3v2l2.2 1.3v-2Z"/><path fill="#000" d="M83.745 92.408c2.165-1.714.362-7.597-4.026-13.14-4.388-5.541-9.701-8.645-11.866-6.93-2.165 1.714-.362 7.596 4.026 13.139 4.388 5.542 9.7 8.645 11.866 6.93Z"/><path fill="#fff" stroke="#000" stroke-width=".744" d="m75.8 70.5-2.6 2.1-6.6 5.3 10.6 13.3 13.2-10.5c9.7-2.6 15.1-11.6 16.5-15.9 3.2-2.5 1.4-5.9 0-6.5 3.8-3.8.5-6.1-.7-7.4 4.1-5.9-2.6-9.8-4.8-8l-23.8 5.6c-9.6 6-5.2 17.2-1.8 22Z"/><path fill="#fff" stroke="#000" stroke-width=".744" d="M117.9 27.6c-11.8 2.7-17.9 15.9-19.5 22.1L85.7 39.2l8.2-20.3c10-2.2 20.2 4.9 24 8.7Z"/><path fill="#33F28B" d="M113.8 26.7c-10.2 3.5-14.6 15.4-15.5 20.9l-11.9-8 5.7-18.3c8.6-2.8 18.1 2.5 21.7 5.4Z"/><path fill="#fff" stroke="#000" stroke-width=".744" d="M111.9 18c-2.5-2.3-13.5-3-18.7-3l-11 1.8 16.6 33C96 37.7 106.3 23.5 111.9 18Z"/><path fill="#33F28B" d="M107.8 18.7c-2.3-1.8-12-1.6-16.6-1.3l-9.4 2.4 16.9 27.5c-3.4-10.3 4.6-23.3 9.1-28.6Z"/><path fill="#fff" stroke="#000" stroke-width=".744" d="M105.7 13.7c-2.1-1.4-10.6-1.5-14.6-1.3l-10 8 17.7 29.8c-4-8.7 2.9-28 6.9-36.5Z"/><path fill="#33F28B" d="M102.4 15.6c-1.9-1.2-9.5-1-13-.7l-8.6 7.4 16.6 25.9c-3.9-7.6 1.7-24.9 5-32.6Z"/><path fill="#fff" d="M68.9 12.5c0 .1.1.2.1.3.7.9 3.5 1.5 11.1-1.2 8.4-3 15.2-2.2 17.6-1.4-8.5 29.1 7.3 52.9 16.3 61.2-6.2 8.3-19.6 10.7-25.6 10.9 3.5-16.8-11.3-53.1-19.3-69.5-.1-.1-.2-.2-.2-.3Z"/><path stroke="#000" stroke-width=".744" d="M68.9 12.5c7.9 16.2 23 52.9 19.5 69.7 6-.2 19.4-2.6 25.6-10.9-8.9-8.3-24.7-32.1-16.3-61.2-2.4-.8-9.2-1.6-17.6 1.4-8.4 3.1-11 2-11.2 1Z"/><path fill="#33F28B" d="M72.9 15.5c.1.1.1.3.2.4.3 0 1.3-.6 5.8-1.8 6.4-1.7 13.9-2.9 15.9-2-8 26.6 10.7 54.2 15.2 59.8-5.4 4.3-14.1 6.3-18.5 6.8 1-13.9-10.3-47.9-18.4-62.8-.2 0-.2-.2-.2-.4Z"/><path fill="#fff" stroke="#000" stroke-width=".744" d="M84.2 76c4.7-20.6-12.9-45.4-22.3-55.2 12.7-7.4 24.8-7 29.3-5.8-1.3 30.4 12.1 48.7 19 54.1-9.9 4.4-21.4 6.5-26 6.9Z"/><path fill="#33F28B" d="M87.3 72.8C89.4 56.6 74.8 31.5 67 22c9.1-4.1 17.8-4.7 21.2-3.1 1.1 24.9 13 44.9 18.6 50.3-7.1 2.2-16.1 3.9-19.5 3.6Z"/><path fill="#fff" stroke="#000" stroke-width=".744" d="m57 42.7 12.7-20.1 4.3 2.6C81.8 30 88 37 93.4 44.4c7.5 10.6 16.2 19.5 20.6 23.4-5.6 7-17.5 9.9-22.7 10.5l-8.1-26.7c-5.8-7.7-19.9-9.1-26.2-8.9Z"/><path fill="#33F28B" stroke="#33F28B" stroke-width=".744" d="m62.1 39 8.5-12.9 3.8 2.5c7 4.6 12.7 10.9 17.4 17.8 6.6 9.5 13.9 17.9 17.5 21.5-3.8 5-12.6 6.8-16.6 6.7l-8.5-23.9C79.3 43.9 66.9 39.5 62.1 39Z"/><path fill="#fff" fill-rule="evenodd" d="m90.5 51.9 10.5-8.4c1.3-.6 4.3-.9 5.7 1.9 1.4 2.9-.3 5.2-1.3 6 3.5 2.7 2.6 5.2 1.3 6.5 3.4 2.5 1.3 5.8-.2 7.1l-5.7 4.6c-4.2.3-4.2-3-3.7-4.7l.8-.6c-.6.3-1.2.5-1.6.5-2.5.1-4.3-2.6-3.5-4.4.6-1.3 1.6-2.8 2.2-3.6-4.6.8-4.9-2.9-4.5-4.9Z" clip-rule="evenodd"/><path stroke="#000" stroke-width=".744" d="m101.5 43.1-10.8 8.7c-.5 2.2-.1 6.1 5 4.8 5.1-1.3 9-4.2 10.3-5.5"/><path stroke="#000" stroke-width=".744" d="M106.5 58.2c-2.5 2.1-8.1 6.5-10.2 6.6-2.6.1-4.4-2.6-3.5-4.4.7-1.5 1.9-3.1 2.4-3.8"/><path stroke="#000" stroke-width=".744" d="M97.2 64.9c-.4 1.4-.6 3.8 1.6 4.5 1.3.4 2.6-.3 3.7-1.1l4.5-3.6c1.1-.9 2.2-2.2 1.8-3.6-.2-.9-.7-2-2-3.2"/><path fill="#fff" d="M91.1 56c3.8-5.3-4.2-9.3-13.3-7.7l3 8.3c6 .1 6.4 2.5 10.3-.6Z"/><path stroke="#000" stroke-width=".744" d="M77.8 48.3c9.1-1.6 17.1 2.4 13.3 7.7-3.9 3.1-4.2.7-10.3.6"/><path fill="#33F28B" stroke="#000" stroke-width=".744" d="M80.2 91.1c-9.8-6.9-11-15.7-11.8-18.9L52.4 85c-2.1 1.7-2.4 4.7-.8 6.8l9.6 12.1c1.7 2.1 4.7 2.4 6.8.8l15-12-2.8-1.6Z"/><path stroke="#000" stroke-width=".744" d="M83.2 47.7c-2.1-1.5-6.5-5.5-8-9.7M91 50.8c-1.5-.9-4.7-3.5-5.8-6.3m3.9 12.6c1.1 2 3.2 7 3 10.9"/><path fill="#000" fill-rule="evenodd" d="M67.9 105c-3.2-.1-7.6-2.9-11.2-7.5-3.6-4.6-5.4-9.6-4.7-12.7-1 0-1.8.2-2.5.8-2.8 2.3-1.3 9 3.5 14.9 4.7 6 10.9 9 13.7 6.7.6-.5 1-1.3 1.2-2.2Z" clip-rule="evenodd"/><path fill="#000" fill-rule="evenodd" d="M55.5 56.8c.9-.6 2.5.7 3 2.5l4.4 18.4c.2 1 .9 2 1.7 2.4l14.3 8.3c1.5.9 2.3 3.3 1.5 4.1l-.2.1c-.1 0-.1.1-.2.1l-7.1 3.4-.7-1.4-4 1c-.6.2-.9.9-.6 1.9L72 116c.3 1.2-.2 1.9-.9 2l-6.5 3.3-7.2-18.8 1.4-.5-1.2-1.7c-.6-.9-1.5-1.4-2.1-1.2l-11.6 3c-1.4.4-3.3-2.3-2.7-3.9L45.8 85c.2-.7 0-1.8-.6-2.7L39 73.5l-.8 1-12.3-8.2 7.2-3.6h.1c.3-.3.8-.4 1.5 0L49 71c.8.4 1.5.3 1.7-.4l1.3-3.7-2.9-5.2c-.3-.5-.1-1.1.4-1.4L55 57c0-.2.3-.3.5-.2Z" clip-rule="evenodd"/><path fill="#fff" d="m55.5 56.8.2.3-.1.1h-.1v-.4Zm24.9 35.7-.3.2-.1-.2.2-.2.2.2Zm0 0 .3-.2.2.3-.3.2-.2-.3ZM73 96.1l.2.3-.3.2-.2-.3.3-.2Zm-.7-1.4-.1-.4.3-.1.1.3-.3.2Zm-1 23.3-.2-.3h.2v.3Zm-6.5 3.3.2.3-.4.2-.1-.4.3-.1Zm-7.2-18.8-.3.1-.1-.4.4-.1v.4Zm1.4-.5.3-.2.3.4-.5.2-.1-.4ZM39 73.5l-.3-.2.3-.4.3.4-.3.2Zm-.8 1 .3.2-.2.3-.3-.2.2-.3Zm-12.3-8.2-.2.3-.5-.4.6-.3.1.4Zm7.2-3.6-.2-.3.2-.1.2.1-.2.3Zm0 0 .3.2-.2.3-.2-.2.1-.3Zm18.8 4.1.3-.2.1.1-.1.2-.3-.1Zm6.2-7.4c-.2-.8-.7-1.5-1.2-2-.3-.2-.5-.3-.7-.4-.2-.1-.4 0-.5 0l-.4-.6c.3-.2.7-.2 1.1-.1.4.1.7.3 1 .5.6.5 1.2 1.4 1.5 2.4l-.8.2Zm4.4 18.3-4.4-18.4.7-.2 4.4 18.4-.7.2Zm1.9 2.7c-.9-.5-1.6-1.6-1.9-2.6l.7-.2c.2.9.8 1.8 1.5 2.2l-.3.6Zm14.4 8.3-14.3-8.3.4-.6 14.3 8.3-.4.6Zm1.3 3.5c.1-.1.2-.3.2-.6s0-.7-.2-1c-.3-.7-.8-1.5-1.4-1.9l.4-.6c.9.5 1.5 1.4 1.8 2.3.1.4.2.9.2 1.3s-.1.8-.4 1.1l-.6-.6Zm0 .1.2-.1.3.7-.2.1-.3-.7Zm-.1 0s.1 0 .1-.1l.4.6c-.1.2-.2.2-.3.2l-.2-.7Zm-7.2 3.5 7.1-3.4.3.6-7 3.5-.4-.7Zm-.1-1.2.7 1.4-.7.3-.7-1.4.7-.3Zm-4.4.8 4-1 .2.7-4 1-.2-.7Zm-.9 2.4c-.1-.5-.1-1.1 0-1.5.1-.4.4-.8.9-.9l.2.7c-.2 0-.3.2-.4.4-.1.3-.1.6 0 1.1l-.7.2Zm4.4 18.4-4.4-18.4.7-.2 4.4 18.4-.7.2Zm-.5 1.5c.2 0 .4-.1.5-.3.1-.2.2-.6 0-1.2l.7-.2c.2.7.1 1.2-.1 1.7s-.6.7-1.1.7v-.7Zm-6.6 3.3 6.5-3.3.3.7-6.5 3.3-.3-.7ZM58 102.4l7.2 18.8-.7.3-7.2-18.8.7-.3Zm1.2 0-1.4.5-.2-.7 1.4-.5.2.7Zm-1.1-2.3 1.2 1.7-.6.4-1.2-1.7.6-.4Zm-2.5-1.4c.4-.1.9 0 1.3.3.4.2.8.6 1.2 1.1l-.6.4c-.3-.4-.6-.7-.9-.9-.3-.2-.6-.2-.8-.2l-.2-.7ZM44 101.8l11.6-3 .2.7-11.6 3-.2-.7Zm-2.3-3.4c-.1.3-.1.7 0 1.1.1.4.3.9.6 1.2.3.4.6.7.9.9.3.2.6.2.8.2l.2.7c-.5.1-1 0-1.4-.3-.4-.3-.8-.6-1.1-1.1-.3-.4-.6-1-.7-1.5-.1-.5-.2-1.1 0-1.5l.7.3Zm4.5-13.3-4.4 13.2-.7-.2 4.4-13.2.7.2Zm-.7-3c.3.5.6 1 .7 1.5.1.5.1 1 0 1.5l-.7-.2c.1-.3.1-.6 0-1.1-.1-.4-.3-.9-.6-1.3l.6-.4Zm-6.2-8.8 6.2 8.8-.6.4-6.2-8.8.6-.4Zm-1.4 1 .8-1 .6.5-.8 1-.6-.5ZM26.1 66l12.3 8.2-.4.6-12.3-8.2.4-.6Zm7.2-3-7.2 3.6-.3-.7 7.2-3.6.3.7Zm-.3 0 .3-.7h.1l-.4.7Zm1.4 0c-.3-.2-.5-.2-.7-.2-.1 0-.3.1-.3.2l-.6-.5c.2-.2.5-.4.9-.4.3 0 .7.1 1.1.3l-.4.6Zm14.4 8.3L34.4 63l.4-.6 14.3 8.3-.3.6Zm2.2-.6c-.2.5-.5.8-.9.9-.4.1-.9 0-1.3-.3l.4-.6c.3.2.6.2.8.2.2 0 .3-.2.4-.4l.6.2Zm1.3-3.8L51 70.6l-.7-.2 1.3-3.7.7.2Zm-3-5.5 2.9 5.2-.6.4-2.9-5.2.6-.4Zm.3-.9c-.3.2-.4.6-.2.9l-.7.4c-.4-.6-.1-1.5.5-1.9l.4.6Zm5.4-3.3-5.5 3.3-.3-.6 5.5-3.3.3.6Zm.4-.1c-.1 0-.3 0-.4.1l-.4-.6c.3-.2.6-.2.9-.2l-.1.7Z"/><path fill="#FFB548" stroke="#000" stroke-width=".744" d="m48.2 61.2-4.4 13.2c-.3.8-1.1 1.1-2 .5l-14.3-8.3c-1.4-.8-2 .9-.9 2.6l11.6 16.5c.7 1 1 2.3.8 3.2l-4.4 13.2c-.4 1.3 1.1 3.5 2.3 3.2l11.6-3c.7-.2 1.7.4 2.5 1.4l11.6 16.5c1.1 1.6 2.7 1.2 2.3-.6l-4.4-18.4c-.3-1.2 0-2.1.8-2.3l11.6-3c1.1-.3.6-2.7-.9-3.6L57.4 84c-.9-.5-1.7-1.7-2-2.8L51 62.8c-.4-1.8-2.4-2.9-2.8-1.6Z"/></g></g><defs><clipPath id="a"><path fill="#fff" d="M0 0h128v128H0z"/></clipPath></defs></svg>