<svg xmlns="http://www.w3.org/2000/svg" width="128" height="128" fill="none"><path fill="#000" stroke="#000" stroke-miterlimit="10" stroke-width=".744" d="M45.327 53.883c-1.075-.63-2.568-.107-2.574-.107-.67.16-1.838.936-2.535 1.28-1.89 1.01-3.092 1.819-3.092 1.819.996-.55 2.084-.776 3.364-.292 2.276.856 3.822 3.808 3.868 6.11.014.544-.046 1.095-.272 1.586-.292.63-.842 1.095-1.4 1.513-.43.325-.882.623-1.34.909l2.9-1.765a19.308 19.308 0 0 0 2.919-1.785c.557-.418 1.108-.882 1.4-1.513.232-.49.285-1.048.272-1.585-.047-2.296-1.42-4.936-3.517-6.164l.007-.006Z"/><path fill="#FFB548" stroke="#000" stroke-miterlimit="10" stroke-width=".744" d="M44.092 64.272c.232-.49.285-1.048.272-1.585-.046-2.296-1.592-5.248-3.868-6.111-1.287-.484-2.369-.259-3.364.292-.968.537-1.85 1.38-2.74 2.183-.16.14-.517.477-.869.81-.717.676-1.208 1.585-1.3 2.567-.014.14-.014.265 0 .365.192 1.393.75 2.713 1.565 3.861.445.624.989 1.26 1.546 1.612.352.226.989.332 1.407.359.444.026.882-.12 1.3-.279a18.8 18.8 0 0 0 3.31-1.652c.459-.285.91-.584 1.341-.909.557-.418 1.108-.882 1.4-1.513Z"/><path fill="#000" stroke="#000" stroke-miterlimit="10" stroke-width=".744" d="M35.686 23.69c-.624-.445-1.466-.97-2.335-1.049-.325-.033-1.181.1-1.832.405l-3.655 2.07s-.007.026.006.026c.723-.106 1.48.186 2.084.61 5.115 3.65 11.763 5.62 10.396 10.663-.285 1.054-.77 2.282-1.659 2.68l4.85-2.435c.91-.378 1.407-1.625 1.692-2.694 1.367-5.049-4.432-6.628-9.54-10.277h-.007Z"/><path fill="#FFB548" stroke="#000" stroke-miterlimit="10" stroke-width=".744" d="M40.342 36.422c1.367-5.05-5.288-7.013-10.397-10.662-.623-.445-1.426-.743-2.176-.597-.617.126-1.114.59-1.46 1.114-.517.79-.915 2.495-.676 3.417.81 3.185 2.09 3.092 3.855 4.392a74.43 74.43 0 0 0 7.079 4.618c.444.252.915.51 1.426.53.259.014.491-.039.697-.132.889-.398 1.373-1.625 1.659-2.68h-.007Z"/><path fill="#000" stroke="#000" stroke-miterlimit="10" stroke-width=".744" d="M71.815 85.171c-.112-3.483.445-8.373-3.005-10.483-1.108-.676-2.654-.716-3.722-.086-.08.047-.153.093-.22.146l-4.743 3.072c1.075-.657 2.64-.624 3.762.06 3.457 2.11 2.9 7 3.005 10.483.027.922.04 1.857-.219 2.74-.185.623-.53 1.227-1.015 1.652l4.266-2.767c.843-.365 1.414-1.2 1.672-2.083.26-.883.252-1.818.22-2.74v.006Z"/><path fill="#FFB548" stroke="#000" stroke-miterlimit="10" stroke-width=".744" d="M66.665 91.102c.259-.882.252-1.818.219-2.74-.113-3.483.444-8.373-3.006-10.483-1.121-.683-2.687-.716-3.762-.06-.418.253-.763.61-.975 1.075-.212.471-.279.989-.338 1.506 0 0 .013 4.2.292 6.27.278 2.064.63 4.094 2.163 5.507 1.001.929 2.48 1.552 3.735 1.008a2.43 2.43 0 0 0 .663-.43c.485-.425.83-1.03 1.015-1.653h-.006Z"/><path fill="#000" stroke="#000" stroke-miterlimit="10" stroke-width=".744" d="M75.845 26.985c-3.072-2.985-6.7-5.56-10.86-6.575-2.76-.67-5.78-.55-8.407.472-.478.185-.942.404-1.393.65-4.518 2.216-7.597 4.95-9.415 6.893 3.085-2.8 7.716-3.516 11.777-2.528 4.16 1.016 7.789 3.596 10.86 6.575 8.606 8.353 13.516 20.375 13.224 32.364-.053 2.243-.272 4.127-1.234 6.098-.697 1.413-1.679 2.547-2.621 3.277-.663.518-1.34.942-2.017 1.307 6.515-2.959 9.441-6.794 9.441-6.794.949-.73 1.93-1.864 2.62-3.277.963-1.964 1.182-3.855 1.235-6.098.292-11.988-4.624-24.01-13.223-32.364h.013Z"/><path fill="#FFB548" stroke="#000" stroke-miterlimit="10" stroke-width=".744" d="M43.744 30.921v.014c.034-.047.06-.093.087-.14a2.421 2.421 0 0 0-.087.126Z"/><path fill="#fff" stroke="#000" stroke-miterlimit="10" stroke-width=".744" d="M80.408 70.934c.962-1.964 1.181-3.855 1.234-6.098.292-11.989-4.624-24.01-13.222-32.364-3.072-2.985-6.702-5.56-10.861-6.575-4.06-.988-8.692-.272-11.777 2.528-.073.066-.153.133-.226.206-.67.643-1.234 1.38-1.711 2.17l-.08.139c-1.2 2.023-1.831 4.405-1.964 6.767-.623 10.702 4.326 23.275 11.83 30.699 5.447 5.387 14.039 11.491 22.153 7.112.677-.365 1.347-.79 2.017-1.307.949-.73 1.93-1.864 2.62-3.277h-.013Z"/><path fill="#000" stroke="#000" stroke-miterlimit="10" stroke-width=".744" d="M91.648 29.188c-1.075-.63-2.568-.106-2.575-.106-.67.16-1.837.936-2.534 1.28-1.89 1.01-3.092 1.819-3.092 1.819.995-.551 2.084-.777 3.364-.292 2.276.855 3.822 3.808 3.868 6.11.013.544-.046 1.095-.272 1.586-.292.63-.843 1.094-1.4 1.512a18.27 18.27 0 0 1-1.34.91l2.9-1.765a19.294 19.294 0 0 0 2.919-1.785c.557-.418 1.108-.883 1.4-1.513.232-.49.285-1.048.272-1.586-.047-2.295-1.42-4.936-3.517-6.163l.007-.007Z"/><path fill="#FFB548" stroke="#000" stroke-miterlimit="10" stroke-width=".744" d="M90.416 39.585c.232-.491.285-1.049.272-1.586-.046-2.296-1.592-5.248-3.868-6.11-1.287-.485-2.369-.26-3.364.291-.968.538-1.85 1.38-2.74 2.183-.16.14-.517.478-.869.81-.717.676-1.207 1.585-1.3 2.567-.014.14-.014.266 0 .365.192 1.394.75 2.714 1.565 3.862.445.623.989 1.26 1.546 1.612.352.225.989.332 1.407.358.444.027.882-.12 1.3-.279a18.806 18.806 0 0 0 3.31-1.652 18.29 18.29 0 0 0 1.341-.909c.557-.418 1.108-.882 1.4-1.512Z"/><path fill="#000" stroke="#000" stroke-miterlimit="10" stroke-width=".744" d="M95.92 59.41c-.623-.445-1.466-.97-2.335-1.049-.325-.033-1.18.1-1.83.405l-3.657 2.07s-.006.026.007.026c.723-.106 1.48.186 2.083.61 5.116 3.65 11.764 5.62 10.397 10.663-.285 1.055-.77 2.282-1.659 2.68l4.85-2.435c.909-.378 1.407-1.625 1.692-2.693 1.367-5.05-4.432-6.628-9.54-10.277h-.007Z"/><path fill="#FFB548" stroke="#000" stroke-miterlimit="10" stroke-width=".744" d="M100.585 72.135c1.367-5.05-5.287-7.013-10.396-10.662-.624-.445-1.427-.743-2.176-.597-.617.126-1.115.59-1.46 1.114-.517.79-.916 2.495-.677 3.417.81 3.185 2.09 3.092 3.855 4.392a74.43 74.43 0 0 0 7.08 4.618c.444.252.915.51 1.426.53.258.014.49-.04.696-.132.89-.398 1.374-1.626 1.659-2.68h-.007Z"/><path fill="#000" stroke="#000" stroke-miterlimit="10" stroke-width=".744" d="M52.494 15.428c-.172-1.062-.743-2.004-1.3-2.92-1.334-2.182-2.21-4.285-3.543-6.468-.982-1.606-1.792-3.848-3.941-4.3-.85-.178-1.792.074-2.422.65l-4.293 2.482a2.847 2.847 0 0 1 1.825-.252c2.15.451 2.959 2.694 3.94 4.3 1.334 2.182 2.21 4.285 3.544 6.468.557.916 1.134 1.865 1.3 2.92.173 1.061-.159 2.275-1.068 2.846l4.89-2.886c.909-.57 1.234-1.785 1.068-2.847v.007Z"/><path fill="#FFB548" stroke="#000" stroke-miterlimit="10" stroke-width=".744" d="M36.65 5.071s.012-.006.019-.013l-.02.013ZM47.604 18.313c-.172-1.061-.743-2.003-1.3-2.919-1.334-2.183-2.21-4.286-3.543-6.469-.982-1.605-1.791-3.848-3.941-4.3a2.847 2.847 0 0 0-2.143.439c-.007 0-.013.013-.02.013-.318.219-.59.504-.763.856-.597 1.194-.053 2.62.518 3.828a67.179 67.179 0 0 0 5.161 8.964c.578.842 1.195 1.698 2.057 2.249.863.55 2.037.73 2.906.186.909-.571 1.234-1.785 1.068-2.847Z"/><path fill="#000" stroke="#000" stroke-miterlimit="10" stroke-width=".744" d="M71.701 8.94c-.331-1.74-2.282-3.696-3.974-4.22a3.387 3.387 0 0 0-2.368.145h-.014c-.179.087-.345.193-.504.312l-4.173 2.568a3.35 3.35 0 0 1 2.289-.113c1.685.524 3.642 2.482 3.974 4.22.498 2.614.04 5.812-.08 8.459-.046 1.028-.159 2.163-.922 2.853 1.407-.836 4.585-2.747 4.764-2.906.77-.69.876-1.831.922-2.86.12-2.647.577-5.845.08-8.459h.007Z"/><path fill="#FFB548" stroke="#000" stroke-miterlimit="10" stroke-width=".744" d="M59.963 8.183v.013l.053-.04-.053.033v-.006ZM65.268 23.553l.031-.018s-.025.012-.03.012v.006Z"/><path fill="#FFB548" stroke="#000" stroke-miterlimit="10" stroke-width=".744" d="M66.936 11.846c-.332-1.739-2.283-3.696-3.975-4.22a3.39 3.39 0 0 0-2.289.113 2.823 2.823 0 0 0-.663.405c-.013.013-.033.026-.047.04a2.21 2.21 0 0 0-.477.57c-.385.683-.392 1.5-.392 2.282v2.488c0 1.798 0 3.623.471 5.361.465 1.738 1.46 3.41 3.02 4.3.808.464 1.843.663 2.686.351.013 0 .027-.013.033-.013.226-.086.438-.206.624-.372.763-.696.876-1.83.922-2.86.12-2.646.577-5.844.08-8.459l.007.014Z"/><path fill="#F8645B" d="M57.288 46.897c.211-.466.888-.423 1.353-.212.803.338 1.48.846 2.2 1.353 1.268.846 3.425 1.819 4.694.381-1.354 2.58-3.468 3.045-4.483 3.087-1.311.085-2.919-.507-3.764-1.564"/><path stroke="#000" stroke-linecap="round" stroke-linejoin="round" stroke-width=".744" d="M57.288 46.897c.211-.466.888-.423 1.353-.212.803.338 1.48.846 2.2 1.353 1.268.846 3.425 1.819 4.694.381-1.354 2.58-3.468 3.045-4.483 3.087-1.311.085-2.919-.507-3.764-1.564M57.288 45.331v10.743"/><path fill="#000" stroke="#000" stroke-linecap="round" stroke-linejoin="round" stroke-width=".744" d="M57.286 45.586c.211 0 .38-.17.38-.381 0-.212-.169-.38-.38-.38-.212 0-.38.168-.38.38 0 .211.168.38.38.38Z"/><path fill="#33F28B" stroke="#000" stroke-miterlimit="10" stroke-width=".744" d="M51.497 100.144c7.782-11.462 15.225-26.56 23.134-38.698a.672.672 0 0 1 1.142 0c7.655 12.603 24.615 42.166 24.615 42.166s-4.23 7.782-24.784 8.289c-21.485.592-24.107-11.757-24.107-11.757Z"/><path fill="#33F28B" stroke="#000" stroke-miterlimit="10" stroke-width=".744" d="M64.137 96.886s-11.123-21.57-16.833-30.324c-.211-.296-.676-.296-.845 0-1.988 3.426-4.568 8.036-7.106 12.646a122.597 122.597 0 0 0-2.41-3.891c-.212-.296-.677-.296-.846 0-5.794 10.066-16.748 30.324-16.748 30.324s2.749 3.848 13.999 4.99c13.83 1.438 20.427-4.99 20.427-4.99s-.76-1.48-1.987-3.807c8.331-1.057 12.35-4.948 12.35-4.948Z"/><path fill="#33F28B" d="M27.64 114.311c9.896-18.863 19.37-40.475 29.055-59.084.254-.465.973-.465 1.226 0 11.8 19.455 21.4 41.532 33.454 59.084 0 0-5.92 11.25-33.242 11.123-23.219-.043-30.493-11.123-30.493-11.123Z"/><path fill="#fff" d="M66.253 80.687c.211.592-.338 1.227-.973 1.058-1.353-.381-2.876-.72-5.582-.72-6.09 0-6.09 1.692-12.18 1.692-.974 0-1.777-.042-2.496-.126-.55-.043-1.692 0-1.48-.508l13.11-26.73c.297-.634 1.227-.591 1.48.043l8.121 25.291Z"/><path stroke="#000" stroke-miterlimit="10" stroke-width=".744" d="M27.639 114.311c9.896-18.863 19.37-40.475 29.055-59.084.254-.465.973-.465 1.227 0 11.8 19.455 21.4 41.532 33.453 59.084 0 0-5.92 11.25-33.242 11.123-23.219-.043-30.493-11.123-30.493-11.123Z"/><path fill="#33F28B" d="M62.279 90.584c3.045-6.005 6.132-12.264 8.924-18.27.169-.38.76-.423.93-.042 9.854 18.904 18.609 41.489 19.243 41.996"/><path stroke="#000" stroke-linecap="round" stroke-miterlimit="10" stroke-width=".744" d="M62.279 90.584c3.045-6.005 6.132-12.264 8.924-18.27.169-.38.76-.423.93-.042 9.854 18.904 18.609 41.489 19.243 41.996"/><path fill="#F8645B" d="M46.037 96.126c.212-.465.888-.423 1.354-.212.803.339 1.48.846 2.199 1.354 1.268.846 3.425 1.819 4.694.38-1.353 2.58-3.468 3.046-4.483 3.088-1.31.085-2.918-.508-3.764-1.565"/><path stroke="#000" stroke-linecap="round" stroke-linejoin="round" stroke-width=".744" d="M46.037 96.126c.212-.465.888-.423 1.354-.212.803.339 1.48.846 2.199 1.354 1.268.846 3.425 1.819 4.694.38-1.353 2.58-3.468 3.046-4.483 3.088-1.31.085-2.918-.508-3.764-1.565M46.037 94.562v10.742"/><path fill="#000" stroke="#000" stroke-linecap="round" stroke-linejoin="round" stroke-width=".744" d="M46.036 94.815a.38.38 0 0 0 .38-.38.38.38 0 0 0-.38-.381.38.38 0 0 0-.381.38c0 .212.17.381.38.381Z"/><path stroke="#9C9B9B" stroke-dasharray="1.77 1.77" stroke-linecap="round" stroke-miterlimit="10" stroke-width=".744" d="M65.198 84.41c-.254-.507-.55-1.015-.846-1.564"/><path stroke="#000" stroke-linecap="round" stroke-miterlimit="10" stroke-width=".744" d="M43.583 82.507c.93.17 2.073.254 3.595.254 6.09 0 6.09-1.692 12.18-1.692 3.68 0 5.16.635 7.063 1.1"/><path fill="#000" d="m36.603 75.106-6.767 27.025-5.878 6.64 5.498 1.353 20.089-40.601-2.58-3.299-5.921 17.89-1.692-4.652-2.749-4.356ZM57.495 54.763l5.329 34.257 2.157-3.003 4.61-10.235-11.63-20.85-.466-.17ZM75.217 61.106l1.988 17.848 4.187-2.284 9.812 23.177-2.834 7.993 1.1 2.157 5.16-1.692 5.413-3.891.339-.972-25.165-42.336Z"/><path fill="#000" d="m72.086 72.568 2.072 10.277 3.764 7.867 2.792 26.137-5.33 6.598 2.538-.55s3.976-1.058 5.202-1.734c7.148-3.891 8.29-6.809 8.29-6.809l-9.939-23.008-9.39-18.778Z"/><path fill="#fff" d="M72.087 82.21c.211-.465.888-.423 1.353-.211.804.338 1.48.846 2.2 1.353 1.268.846 3.425 1.819 4.694.38-1.353 2.58-3.468 3.046-4.483 3.088-1.311.085-2.918-.507-3.764-1.565"/><path fill="#F8645B" d="M72.087 82.21c.211-.465.888-.423 1.353-.211.804.338 1.48.846 2.2 1.353 1.268.846 3.425 1.819 4.694.38-1.353 2.58-3.468 3.046-4.483 3.088-1.311.085-2.918-.507-3.764-1.565"/><path stroke="#000" stroke-linecap="round" stroke-linejoin="round" stroke-width=".744" d="M72.087 82.21c.211-.465.888-.423 1.353-.211.804.338 1.48.846 2.2 1.353 1.268.846 3.425 1.819 4.694.38-1.353 2.58-3.468 3.046-4.483 3.088-1.311.085-2.918-.507-3.764-1.565M72.087 80.647v10.742"/><path fill="#000" stroke="#000" stroke-linecap="round" stroke-linejoin="round" stroke-width=".744" d="M72.085 80.9a.38.38 0 0 0 .38-.381.38.38 0 0 0-.38-.381.38.38 0 0 0-.38.38c0 .212.169.381.38.381Z"/></svg>