<svg xmlns="http://www.w3.org/2000/svg" width="128" height="128" fill="none"><g clip-path="url(#a)"><ellipse cx="47.709" cy="47.72" fill="#33F28B" stroke="#000" stroke-width=".744" rx="47.709" ry="47.72" transform="matrix(-.6714 .74109 .74257 .66977 58.914 -5.349)"/><ellipse cx="31.037" cy="31.044" fill="#fff" rx="31.037" ry="31.044" transform="matrix(-.6714 .74109 .74257 .66977 61.183 3.608)"/><path stroke="#000" stroke-width=".744" d="M14.8 64.829c3.803 2.047 12.505-5.378 18.541-16.54 6.036-11.163 7.847-21.871 4.044-23.918-1.83-.986-4.63.216-7.713 2.973M108.303 50.185c1.036 8.129-1.824 20.106-8.28 32.044-6.402 11.838-14.777 20.748-22.111 24.406M35.051 100.759c8.176 4.401 24.839-10.588 37.219-33.48 12.38-22.892 15.788-45.018 7.612-49.42"/><path stroke="#000" stroke-width=".744" d="M77.823 106.553c.962-4.203-8.532-10.588-20.924-13.414-12.392-2.825-23.219-1.708-24.181 2.495-.464 2.024 1.444 4.395 4.93 6.624M38.724 20.549c7.575-3.166 19.906-3.613 33.16-.59 13.142 2.996 23.984 8.67 29.474 14.747M107.12 77.489c2.069-9.036-16.856-21.059-42.27-26.853-25.415-5.794-47.695-3.166-49.765 5.87"/><path fill="#000" stroke="#fff" stroke-linecap="round" stroke-linejoin="round" stroke-width=".744" d="M28.599 38.835s-4.285 7.627 3.815 15.672c7.469 7.62 15.256 7.202 15.256 7.202l44.881 52.116c1.361 1.677 3.685 2.302 5.8 1.86l2.527-.496c1.059-.221 1.721-.98 1.799-1.748l2.39-6.708L58.613 59.03s4.433-4.194-1.63-11.913c-5.096-6.58-11.776-15.314-14.162-15.763l-2.265 6.355L50.7 50.456l-6.978.68-12.352-17.88-2.772 5.58Z"/><path fill="#C7C7C7" stroke="#000" stroke-linecap="round" stroke-linejoin="round" stroke-width=".744" d="M31.437 33.08s-4.555 6.736 3.483 14.957c7.468 7.621 15.255 7.203 15.255 7.203l44.882 52.116c1.36 1.676 3.684 2.302 5.8 1.859l2.527-.495c1.705-.389 2.523-2.684 1.447-4.06L61.292 52.622s4.433-4.194-1.63-11.913c-6.062-7.719-16.49-9.231-16.49-9.231l10.146 12.747-9.19 2.705-12.69-13.85Z"/><path fill="#fff" stroke="#000" stroke-miterlimit="10" stroke-width=".744" d="M99.641 53.304c.105.114.216.226.32.34-.11-.113-.215-.226-.32-.34ZM104.206 56.671ZM102.988 56.03ZM101.297 54.86ZM94.616 42.284l-.043-.213.043.213ZM98.167 51.442c.03.048.068.101.105.148-.037-.047-.067-.095-.105-.148ZM100.326 54.014Z"/><path fill="#F360AF" stroke="#000" stroke-miterlimit="10" stroke-width=".744" d="M22.335 109.207c1.806 3.114 4.326 4.21 6.105 4.589 1.2.253 2.458-.064 3.433-.808l4.97-3.783c-.55-.312-.932-.658-.932-.658s-6.927-4.583-7.373-13.121c0 0-.109-.369-.095-.924l-6.485 5.418a4.267 4.267 0 0 0-1.537 3.568c.099 1.407.552 3.356 1.911 5.706l.003.013Z"/><path fill="#000" stroke="#000" stroke-miterlimit="10" stroke-width=".744" d="M28.54 95.432c.445 8.538 7.373 13.121 7.373 13.121s.373.341.931.659c.75.426 1.831.798 2.758.178.99-.667 1.3-1.727 1.398-2.434l-.354.281s-2.18-1.185-4.4-3.414c-.96-.969-1.936-2.138-2.734-3.497a18.74 18.74 0 0 1-1.164-2.35c-1.34-3.243-1.496-6.054-1.507-6.335-.736.063-1.477.302-1.843.922a3.992 3.992 0 0 0-.552 1.952c-.008.554.095.923.095.923l-.002-.006ZM117.171 35.361l-9.026 2.077c.962 2.39 2.062 4.692 3.651 6.78l5.375-8.857Z"/><path fill="#fff" stroke="#000" stroke-miterlimit="10" stroke-width=".744" d="M94.616 42.285a28.55 28.55 0 0 0 1.172 4.369c.613 1.707 1.398 3.332 2.385 4.788.03.048.068.1.104.147.315.448.641.887.997 1.306.124.143.246.28.369.416a21.04 21.04 0 0 0 .677.704c.21.2.426.398.648.589.106.093.212.179.324.264.201.16.402.315.607.462.072.053.137.107.214.152.282.192.57.375.869.55.083.044.161.095.244.139.32.177.639.348.98.5l.035-.027 7.548-12.425c-1.589-2.087-2.688-4.39-3.651-6.78L94.34 40.61c.067.492.147.98.234 1.468l.043.214-.001-.007Z"/><path fill="#fff" stroke="#000" stroke-miterlimit="10" stroke-width=".744" d="M99.266 52.89c-.354-.413-.687-.85-.996-1.306-.037-.047-.067-.095-.105-.147-.987-1.456-1.77-3.075-2.385-4.788-21.47 16.8-41.726 34.916-63.44 51.315.319.77.697 1.562 1.162 2.35.799 1.359 1.773 2.521 2.736 3.497C58.12 87.937 77.816 69.423 99.26 52.891l.006-.002Z"/><path fill="#fff" stroke="#000" stroke-miterlimit="10" stroke-width=".744" d="M32.347 97.97c21.715-16.4 41.97-34.516 63.441-51.316a28.56 28.56 0 0 1-1.172-4.369l-.043-.213a37.043 37.043 0 0 1-.234-1.469l-.233.048-63.273 50.952.006.025c.01.281.167 3.092 1.507 6.335l.001.007ZM102.989 56.03a12.745 12.745 0 0 1-.869-.55c-.072-.052-.143-.105-.213-.151a13.405 13.405 0 0 1-.608-.462c-.106-.087-.218-.172-.324-.264-.222-.191-.437-.383-.648-.59a6.092 6.092 0 0 1-.358-.364 12.7 12.7 0 0 1-.32-.34c-.122-.136-.25-.271-.368-.416-21.444 16.533-41.138 35.053-63.022 50.921 2.212 2.23 4.399 3.414 4.399 3.414l.354-.281 63.208-50.278c-.335-.154-.66-.323-.98-.5-.083-.044-.162-.096-.245-.14l-.006.002Z"/></g><defs><clipPath id="a"><path fill="#fff" d="M0 0h128v128H0z"/></clipPath></defs></svg>